<?xml version="1.0"?>
<svg width="100" height="100" xmlns="http://www.w3.org/2000/svg" xmlns:svg="http://www.w3.org/2000/svg">
 <g>
  <title>Layer 1</title>
  <g id="svg_1">
   <g id="svg_2">
    <path id="svg_3" d="m88.139,24.908c-0.268,-0.335 -0.673,-0.529 -1.102,-0.529l-11.573,0c-0.012,0 -0.023,0 -0.035,0l-35.555,0c-0.011,0 -0.022,-0.001 -0.033,0l-11.453,0l-0.968,-3.608c-0.909,-2.799 -3.498,-4.68 -6.441,-4.68l-8.018,0c-0.778,0 -1.409,0.631 -1.409,1.409s0.631,1.409 1.409,1.409l8.018,0c1.718,0 3.229,1.099 3.739,2.662l9.393,35.009c-0.003,0.016 -0.009,0.031 -0.011,0.047l-1.386,9.843c-0.061,0.43 0.068,0.865 0.354,1.193c0.284,0.327 0.697,0.516 1.132,0.516l43.767,0c0.828,0 1.5,-0.672 1.5,-1.5s-0.672,-1.5 -1.5,-1.5l-42.041,0l0.826,-5.865l35.867,0c4.883,0 9.045,-3.326 10.12,-8.09l5.674,-25.126c0.095,-0.418 -0.007,-0.856 -0.274,-1.19zm-29.172,31.588l0,-12.317l11.652,0l-2.289,12.317l-9.363,0zm-10.236,0l-2.961,-12.316l10.197,0l0,12.316l-7.236,0zm-11.817,-0.35l-3.211,-11.967l9.168,0l2.961,12.316l-8.789,0c-0.029,-0.122 -0.072,-0.239 -0.129,-0.349zm8.134,-14.967l-3.362,-13.982l14.28,0l0,13.982l-10.918,0zm13.919,0l0,-13.982l14.807,0l-2.598,13.982l-12.209,0zm-20.179,-13.982l3.362,13.982l-9.183,0c-0.023,0 -0.045,0.006 -0.067,0.007l-3.754,-13.989l9.642,0zm33.831,29.299l-1.421,0l2.288,-12.316l7.954,0l-1.451,6.424c-0.783,3.468 -3.813,5.892 -7.37,5.892zm9.498,-15.317l-8.074,0l2.598,-13.982l8.633,0l-3.157,13.982z"/>
    <path id="svg_4" d="m37.567,71.249c-3.49,0 -6.33,2.84 -6.33,6.33c0,3.49 2.84,6.33 6.33,6.33c3.491,0 6.331,-2.84 6.331,-6.33c0,-3.49 -2.84,-6.33 -6.331,-6.33zm0,9.842c-1.937,0 -3.512,-1.575 -3.512,-3.512s1.575,-3.512 3.512,-3.512c1.936,0 3.513,1.575 3.513,3.512s-1.576,3.512 -3.513,3.512z"/>
    <path id="svg_5" d="m75.901,71.249c-3.491,0 -6.331,2.84 -6.331,6.33c0,3.49 2.84,6.33 6.331,6.33c3.49,0 6.33,-2.84 6.33,-6.33c0,-3.49 -2.84,-6.33 -6.33,-6.33zm0,9.842c-1.937,0 -3.513,-1.575 -3.513,-3.512s1.576,-3.512 3.513,-3.512c1.937,0 3.512,1.575 3.512,3.512s-1.575,3.512 -3.512,3.512z"/>
   </g>
  </g>
 </g>
</svg>