<svg xmlns="http://www.w3.org/2000/svg" xmlns:xlink="http://www.w3.org/1999/xlink" version="1.1" x="0px" y="0px" viewBox="0 0 100 125" enable-background="new 0 0 100 100" xml:space="preserve"><path fill-rule="evenodd" clip-rule="evenodd" d="M-24.236,5.993c0.489,0.128,0.928,0.228,1.357,0.36  c0.381,0.119,0.558,0.361,0.555,0.804c-0.019,3.165,0.003,6.33-0.03,9.494c-0.003,0.327-0.208,0.736-0.453,0.962  c-1.415,1.309-3.156,1.375-4.94,1.179c-1.021-0.113-1.9-0.569-2.632-1.275c-0.185-0.178-0.322-0.481-0.343-0.738  c-0.05-0.608-0.016-1.223-0.016-1.958c-0.626,0.091-1.186,0.18-1.747,0.25c-0.552,0.069-1.109,0.182-1.66,0.163  c-0.998-0.034-1.552-0.615-1.621-1.606c-0.03-0.433-0.029-0.868-0.029-1.301c-0.002-3.924-0.004-7.848,0-11.772  c0.002-1.984,1.093-3.127,3.081-3.194c0.468-0.016,0.641-0.142,0.602-0.625c-0.044-0.537-0.01-1.08-0.01-1.627  c-0.136-0.055-0.25-0.112-0.369-0.147c-0.457-0.137-0.673-0.405-0.648-0.915c0.039-0.812,0.032-1.627,0.007-2.44  c-0.013-0.411,0.139-0.649,0.527-0.759c1.585-0.447,3.181-0.429,4.773-0.063c0.503,0.116,0.784,0.427,0.735,1.022  c-0.058,0.701-0.041,1.411-0.005,2.114c0.022,0.448-0.087,0.782-0.506,0.971c-0.289,0.13-0.369,0.342-0.349,0.648  c0.026,0.414,0.035,0.834-0.002,1.247c-0.038,0.432,0.127,0.58,0.546,0.568c1.421-0.04,2.35,0.703,2.905,1.941  c0.163,0.365,0.222,0.802,0.228,1.207c0.026,1.717,0.015,3.435,0.019,5.152C-24.263,5.76-24.246,5.866-24.236,5.993z M-31.171-1.675  c-0.304,0-0.519-0.012-0.731,0.002c-1.48,0.101-2.652,0.897-2.638,2.603c0.014,1.663-0.039,3.327-0.035,4.99  c0.005,2.115,0.01,4.231,0.069,6.345c0.03,1.101,0.675,1.466,1.701,1.053c0.603-0.242,1.204-0.488,1.797-0.751  c0.107-0.047,0.244-0.181,0.25-0.28c0.026-0.479,0.012-0.958,0.012-1.436c-0.874-0.091-1.661-0.195-2.451-0.247  c-0.459-0.03-0.602-0.203-0.598-0.669c0.023-2.658,0.011-5.316,0.014-7.974c0-0.156,0.021-0.313,0.034-0.492  c0.312,0,0.578,0,0.874,0c0.126-1.221,0.875-1.862,1.999-2.023c0.702-0.101,1.429-0.019,1.974-0.019  c-0.614,0.139-1.402,0.254-2.145,0.503c-0.727,0.244-1.042,0.859-0.974,1.661c1.842,0,3.69,0,5.551,0c0,0.266,0,0.583,0,1.021  c-2.127,0-4.225,0-6.34,0c0,2.328,0,4.636,0,7.001c0.686,0.083,1.351,0.164,2.068,0.25c0-0.972,0.02-1.839-0.008-2.704  c-0.014-0.435,0.148-0.708,0.556-0.797c0.756-0.164,1.513-0.354,2.28-0.427c0.764-0.073,1.54-0.016,2.316-0.016  c0-1.736-0.025-3.378,0.008-5.02c0.029-1.473-0.66-2.068-1.906-2.435c-0.471-0.139-0.981-0.146-1.532-0.221c0-0.985,0-1.971,0-2.988  c-0.737,0-1.415,0-2.143,0C-31.171-3.738-31.171-2.75-31.171-1.675z M-23.537,7.494c-1.5,0.066-2.968,0.132-4.471,0.199  c0,3.012,0,6.042,0,9.152c1.033-0.543,1.984-0.423,2.939-0.021c0.226,0.095,0.496,0.154,0.735,0.129  c0.38-0.04,0.793-0.162,0.799-0.646c0.019-1.617,0.007-3.235,0.007-4.865c-1.484,0.373-3.196,0.481-3.98,0.248  c0-0.322,0-0.656,0-1.044c1.354-0.025,2.681-0.111,3.971,0.447C-23.537,9.89-23.537,8.691-23.537,7.494z M-28.076-8.207  c-1.335,0-2.604,0-3.912,0c0,0.642-0.023,1.291,0.017,1.936c0.009,0.152,0.21,0.386,0.359,0.42c1.181,0.27,2.354,0.127,3.535-0.094  C-28.076-6.747-28.076-7.499-28.076-8.207z M-29.673,7.476c-0.013,0.109-0.028,0.18-0.028,0.25  c-0.001,2.742,0.002,5.484-0.004,8.227c-0.001,0.525,0.292,0.767,0.826,0.931c0-0.236,0-0.426,0-0.616c0-2.687,0-5.373,0-8.06  C-28.879,7.483-28.88,7.483-29.673,7.476z"/><path fill-rule="evenodd" clip-rule="evenodd" d="M-130.307,68.202c0.534,0.206,1.032,0.337,1.462,0.586  c0.284,0.164,0.469,0.498,0.699,0.757c-0.257,0.203-0.491,0.536-0.775,0.587c-1.275,0.227-2.562,0.411-3.852,0.535  c-0.788,0.075-1.59-0.008-2.384,0.027c-0.206,0.009-0.486,0.142-0.592,0.307c-0.719,1.124-1.748,1.555-3.017,1.309  c-0.59-0.115-0.915,0.019-1.13,0.629c3.32,0.712,6.619,0.607,9.991-0.067c-0.094,1.02-0.191,2-0.272,2.982  c-0.108,1.296-0.216,2.593-0.3,3.892c-0.035,0.534-0.382,0.763-0.81,0.884c-0.388,0.109-0.744-0.252-0.727-0.707  c0.065-1.752,0.141-3.504,0.211-5.256c0.007-0.18,0.001-0.359,0.001-0.608c-0.657,0.073-1.289,0.143-1.971,0.218  c-0.027,0.543-0.061,1.062-0.078,1.581c-0.047,1.427-0.083,2.854-0.132,4.282c-0.018,0.521-0.528,0.991-1.03,0.975  c-0.552-0.019-1.03-0.497-1.027-1.042c0.007-1.572,0.019-3.146,0.027-4.719c0.002-0.34,0-0.68,0-1.062  c-0.555-0.05-1.066-0.096-1.659-0.149c0,0.322,0.004,0.587-0.001,0.853c-0.034,1.699-0.083,3.397-0.095,5.097  c-0.003,0.446-0.202,0.687-0.586,0.786c-0.412,0.107-0.593-0.211-0.717-0.511c-0.086-0.209-0.108-0.454-0.111-0.685  c-0.02-1.699-0.043-3.398-0.031-5.098c0.003-0.508-0.122-0.79-0.683-0.757c-0.171,0.01-0.347-0.063-0.558-0.106  c0,1.212-0.005,2.383,0.002,3.555c0.004,0.668,0.033,1.337,0.044,2.005c0.005,0.33,0.031,0.693-0.445,0.715  c-0.495,0.021-0.589-0.318-0.604-0.716c-0.056-1.481-0.112-2.963-0.17-4.444c-0.007-0.178-0.027-0.355-0.041-0.532  c-0.861,0.05-0.894,0.079-0.87,0.896c0.045,1.535,0.127,3.07,0.136,4.605c0.004,0.813,0.435,1.361,0.964,1.854  c0.722,0.674,1.473,1.319,2.246,1.934c0.237,0.188,0.586,0.323,0.887,0.328c1.841,0.028,3.683,0.027,5.524-0.002  c0.282-0.005,0.635-0.134,0.829-0.329c0.744-0.756,1.466-1.538,2.131-2.362c0.192-0.238,0.19-0.646,0.243-0.981  c0.408-2.623,0.807-5.247,1.204-7.841c0.15-0.008,0.333,0.007,0.505-0.03c1.375-0.298,2.394,0.409,2.582,1.815  c0.177,1.328-0.194,2.551-0.827,3.689c-0.405,0.729-0.918,1.397-1.383,2.093c-0.054-0.032-0.108-0.063-0.163-0.095  c0.275-0.627,0.563-1.248,0.822-1.882c0.39-0.954,0.539-1.948,0.375-2.972c-0.096-0.595-0.567-0.983-1.12-0.966  c-0.628,0.02-0.813,0.224-0.852,0.843c-0.13,2.038-0.247,4.077-0.438,6.11c-0.041,0.432-0.317,0.874-0.58,1.244  c-0.455,0.641-0.995,1.219-1.479,1.839c-0.758,0.97-1.851,1.111-2.957,1.223c-1.886,0.191-3.752-0.034-5.609-0.326  c-0.276-0.044-0.553-0.269-0.771-0.473c-1.043-0.979-2.062-2.006-2.634-3.331c-0.26-0.602-0.23-1.336-0.292-2.015  c-0.129-1.402-0.239-2.808-0.34-4.214c-0.022-0.307-0.124-0.432-0.446-0.468c-2.954-0.329-3.779-3.213-2.892-5.135  c0.278-0.604,0.496-1.232,1.115-1.622c0.159-0.101,0.221-0.438,0.236-0.671c0.059-0.928,0.293-1.796,0.913-2.496  c0.254-0.287,0.632-0.552,0.997-0.634c0.5-0.111,1.045-0.085,1.562-0.031c0.343,0.035,0.568-0.02,0.804-0.276  c0.327-0.356,0.67-0.724,1.075-0.979c1.359-0.862,2.783-1.005,4.181-0.11c0.661,0.423,1.234,0.98,1.868,1.447  c0.166,0.122,0.408,0.172,0.62,0.191c0.249,0.022,0.504-0.041,0.756-0.038c2.306,0.028,2.985,1.811,2.546,3.736  C-130.225,67.975-130.265,68.072-130.307,68.202z M-134.048,65.601c-0.516-1.427-1.506-2.345-3.001-2.346  c-1.46,0-2.609,0.738-3.25,2.122c-1.101-0.803-1.97-0.863-2.824-0.155c-0.254,0.211-0.587,0.523-0.593,0.796  c-0.014,0.641,0.148,1.284,0.245,1.967c-1.138,0.534-1.882,1.724-1.786,3.033c0.065,0.892,0.546,1.533,1.35,1.864  c0.886,0.364,1.809,0.338,2.681-0.086c0.833-0.405,1.32-1.134,1.669-1.977c0.257,0.102,0.487,0.205,0.726,0.285  c1.192,0.404,1.87,0.15,2.559-0.9c0.091-0.138,0.336-0.24,0.514-0.245c1.678-0.054,3.357-0.068,5.035-0.13  c0.37-0.014,0.735-0.167,1.103-0.257c0.005-0.074,0.011-0.148,0.016-0.224c-0.505-0.232-1.01-0.465-1.514-0.696  c0.627-1.047,0.705-2.173,0.192-2.778C-131.587,65.094-132.589,64.991-134.048,65.601z"/><path fill-rule="evenodd" clip-rule="evenodd" d="M-127.866,36.169c-0.076-0.59-0.194-1.179-0.214-1.77  c-0.015-0.447-0.271-0.528-0.604-0.601c-1.776-0.392-3.553-0.781-5.327-1.184c-0.843-0.191-1.681-0.409-2.663-0.649  c0.159,0.223,0.234,0.374,0.349,0.481c0.475,0.441,0.954,0.88,1.448,1.299c0.294,0.25,0.442,0.518,0.439,0.927  c-0.02,2.258,0,4.516-0.018,6.774c-0.003,0.41,0.125,0.603,0.515,0.741c0.779,0.275,1.536,0.615,2.372,0.957  c0.084-1.619,0.166-3.183,0.248-4.747c0.023,0,0.046,0,0.07-0.001c0.037,1.622,0.072,3.244,0.111,4.866  c0.017,0.668,0.037,1.337,0.069,2.005c0.006,0.131,0.036,0.322,0.123,0.378c1.046,0.665,2.104,1.309,3.215,1.993  c0.017-0.177,0.04-0.309,0.04-0.44c0.003-2.567-0.002-5.135,0.012-7.702c0.001-0.325-0.104-0.527-0.362-0.72  c-1.001-0.749-1.986-1.521-2.927-2.372c0.293,0.12,0.583,0.248,0.88,0.358c1.638,0.61,3.271,1.234,4.92,1.812  c0.441,0.154,0.571,0.367,0.542,0.817c-0.06,0.919-0.062,1.842-0.086,2.764c-0.004,0.155,0,0.31,0,0.593  c0.675-0.313,1.273-0.554,1.829-0.87c0.154-0.087,0.241-0.388,0.26-0.599c0.1-1.098,0.164-2.199,0.247-3.298  c0.08-1.061,0.168-2.121,0.372-3.179c0,1.088-0.004,2.176,0.001,3.265c0.005,1.084-0.041,2.174,0.054,3.252  c0.062,0.705-0.226,1.145-0.745,1.471c-0.639,0.4-1.319,0.733-2.161,1.194c0,1.042-0.017,2.251,0.01,3.459  c0.009,0.387-0.123,0.556-0.487,0.624c-0.372,0.069-0.737,0.176-1.104,0.271c-0.757,0.195-1.393,0.088-2.057-0.429  c-0.86-0.67-1.844-1.187-2.796-1.733c-0.338-0.194-0.415-0.423-0.399-0.785c0.058-1.318,0.043-1.309-1.228-1.735  c-0.491-0.165-0.962-0.39-1.529-0.624c0,0.659,0,1.229,0,1.826c-0.365,0-0.665,0-1.02,0c0-3.47,0-6.934,0-10.439  c-3.099-0.237-6.158-0.431-9.126-1.438c-0.013,0.103-0.041,0.219-0.041,0.334c-0.001,2.622-0.009,5.243,0.012,7.865  c0.002,0.304,0.168,0.605,0.258,0.908c0.072-0.013,0.145-0.026,0.217-0.039c0.114-2.312,0.228-4.624,0.342-6.935  c0.021,0,0.043,0,0.064,0c0.068,2.202,0.187,4.405,0.179,6.607c-0.003,0.822,0.301,1.226,1.07,1.443  c0.1-1.281,0.198-2.556,0.297-3.831c0.062,0.001,0.123,0.002,0.184,0.003c0,1.063,0.012,2.126-0.004,3.189  c-0.013,0.932,0.081,1.066,1.015,1.247c0.106,0.021,0.217,0.023,0.321,0.051c1.162,0.313,2.323,0.629,3.475,1.04  c-0.928-0.092-1.873-0.106-2.781-0.296c-1.142-0.238-2.296-0.522-3.366-0.974c-0.792-0.333-1.465-0.955-2.168-1.479  c-0.107-0.08-0.122-0.328-0.123-0.499c-0.008-3.092-0.004-6.184-0.015-9.275c-0.001-0.349,0.135-0.56,0.462-0.625  c1.255-0.249,2.502-0.579,3.77-0.708c3.132-0.318,6.279-0.453,9.422-0.223c1.959,0.143,3.913,0.408,5.856,0.699  c0.991,0.148,1.965,0.442,2.928,0.733c0.368,0.112,0.895,0.27,0.8,0.803c-0.085,0.482-0.578,0.538-0.993,0.586  c-1.237,0.146-2.474,0.294-3.713,0.412c-0.303,0.028-0.406,0.144-0.433,0.422c-0.055,0.572-0.13,1.142-0.196,1.713  C-127.792,36.157-127.829,36.163-127.866,36.169z"/><path fill-rule="evenodd" clip-rule="evenodd" d="M-66.697,63.55c0.863,0.112,0.598,0.905,0.806,1.536  c0.85-0.321,1.698-0.642,2.545-0.963c0.067-0.025,0.129-0.065,0.195-0.094c1.088-0.465,1.119-0.588,0.357-1.415  c1.519-0.541,3.354,0.138,4.157,1.646c0.479,0.901,0.811,1.885,1.175,2.845c0.246,0.647,0.576,1.087,1.345,1.208  c0.589,0.094,1.173,0.372,1.699,0.673c0.753,0.431,0.789,1.232,0.109,1.779c-0.333,0.268-0.746,0.437-1.098,0.685  c-0.175,0.123-0.396,0.309-0.423,0.491c-0.23,1.548-1.118,2.779-2.139,3.818c-0.99,1.006-2.214,1.83-3.701,2.075  c1.481-0.693,2.657-1.733,3.401-3.18c0.395-0.769,0.603-1.633,0.942-2.585c-0.546,0.119-0.914,0.179-1.265,0.29  c-0.097,0.03-0.164,0.205-0.212,0.327c-0.39,0.986-0.733,1.994-1.176,2.957c-0.168,0.366-0.558,0.633-0.902,0.911  c0.964-1.158,1.118-2.563,1.367-4.031c-3.556,0.542-7.018,0.434-10.563-0.311c0.374,1.999,1.555,3.42,2.817,4.798  c-0.01,0.009-0.044,0.045-0.049,0.042c-1.037-0.795-2.206-1.448-2.814-2.695c-0.362-0.742-0.711-1.499-1.163-2.185  c-0.171-0.259-0.617-0.337-1.091-0.575c0.224,0.74,0.323,1.349,0.584,1.877c0.938,1.9,2.322,3.452,4.24,4.34  c2.208,1.021,4.525,1.18,6.918,0.444c1.749-0.538,3.129-1.574,4.341-2.836c0.736-0.768,1.236-1.761,1.878-2.705  c-0.08,0.201-0.137,0.359-0.206,0.513c-0.8,1.767-1.861,3.377-3.448,4.495c-1.188,0.838-2.559,1.432-4.057,1.535  c-0.529,0.036-0.728,0.27-0.772,0.754c-0.031,0.337-0.11,0.668-0.174,1.037c0.449,0.048,0.869,0.047,1.264,0.144  c1.046,0.255,2.097,0.51,3.119,0.844c0.837,0.274,0.971,1.159,0.219,1.604c-0.621,0.367-1.347,0.624-2.06,0.757  c-2.111,0.394-4.237,0.466-6.339-0.085c-0.551-0.145-1.111-0.337-1.595-0.627c-0.258-0.155-0.53-0.593-0.49-0.856  c0.045-0.298,0.385-0.628,0.681-0.797c1.205-0.691,2.562-0.813,3.913-0.935c0.122-0.011,0.243-0.031,0.47-0.061  c-0.13-0.537-0.228-1.043-0.387-1.529c-0.037-0.112-0.277-0.211-0.431-0.224c-1.601-0.127-3.084-0.69-4.444-1.457  c-1.279-0.722-2.345-1.745-3.143-3.048c-0.961-1.569-1.473-3.238-1.563-5.078c2.079,1.414,4.463,1.776,6.838,2.041  c3.562,0.396,7.114,0.232,10.593-0.718c0.583-0.159,1.148-0.431,1.677-0.729c0.417-0.234,0.434-0.566,0.048-0.81  c-0.536-0.339-1.13-0.586-1.699-0.872c-0.034,0.052-0.068,0.103-0.103,0.154c0.212,0.277,0.423,0.555,0.674,0.883  c-1.739-0.793-2.123-2.456-2.687-3.993c-0.041,0.02-0.082,0.039-0.123,0.059c-0.013,0.081-0.034,0.162-0.039,0.244  c-0.076,1.141-0.79,1.89-1.576,2.603c-0.441,0.399-0.9,0.792-1.274,1.251c-0.282,0.346-0.443,0.791-0.69,1.253  c-0.318,0-0.754,0-1.342,0c0.228-0.444,0.325-0.868,0.59-1.109c0.797-0.728,1.629-1.425,2.504-2.054  c0.815-0.586,1.596-2.263,1.34-3.201c-0.153-0.561-0.626-0.843-0.995-1.057c-0.272,0.705-0.432,1.464-0.834,2.058  c-0.382,0.565-0.99,0.995-1.549,1.418c-0.617,0.466-1.301,0.842-1.938,1.283c-0.852,0.591-1.457,1.349-1.494,2.518  c-0.475-0.034-0.928-0.066-1.522-0.109c0.217-0.531,0.345-1.001,0.586-1.402c0.417-0.692,0.91-1.304,1.68-1.697  c1.059-0.54,2.063-1.189,3.078-1.811c0.744-0.454,1.209-1.278,1.126-2.026c-0.897,1.159-2.278,1.142-3.455,1.59  c-0.571,0.218-1.188,0.326-1.74,0.581c-1.869,0.864-3.266,2.172-3.765,4.307c-0.467-0.111-0.915-0.219-1.463-0.35  c0.297-0.685,0.578-1.331,0.89-2.049c-0.664,0.07-1.294,0.138-1.925,0.205c-0.006-0.031-0.012-0.063-0.018-0.094  c0.487-0.102,0.975-0.288,1.462-0.286c0.814,0.002,1.165-0.591,1.648-1.102c-0.824-0.508-1.338-1.217-1.244-2.214  c0.108-1.148,1.149-1.25,2.076-1.672c-0.644-0.588-1.194-1.177-1.83-1.65c-0.949-0.707-2.014-1.188-3.208-1.36  c-0.384-0.056-0.585-0.036-0.668,0.419c-0.209,1.141-0.903,1.912-2.008,2.422c0.123-1.214,0.48-2.213,1.572-2.893  c-0.697,0.034-1.009-0.392-1.272-0.906c1.881-0.477,5.245,1.156,7.809,3.782c0.54-0.517,1.17-0.975,1.908-0.514  c0.67,0.419,0.828,1.163,0.828,2.087c-0.205-0.45-0.329-0.766-0.487-1.063c-0.269-0.505-0.606-0.599-1.108-0.319  c-0.14,0.078-0.249,0.214-0.391,0.288c-0.487,0.257-0.962,0.56-1.48,0.728c-0.413,0.133-0.751,0.274-0.855,0.714  c-0.114,0.48-0.048,0.941,0.302,1.316c0.316,0.339,0.631,0.52,1.116,0.189c0.378-0.258,0.864-0.354,1.29-0.549  c0.227-0.104,0.601-0.263,0.605-0.406c0.013-0.427-0.116-0.859-0.212-1.284c-0.012-0.056-0.156-0.082-0.239-0.122  C-66.8,63.635-66.749,63.592-66.697,63.55z M-63.447,82.636c-0.035,0.003-0.069,0.005-0.104,0.007  c-0.08-0.272-0.128-0.561-0.251-0.813c-0.066-0.135-0.276-0.311-0.394-0.292c-0.864,0.135-1.726,0.295-2.579,0.489  c-0.382,0.088-0.379,0.354-0.108,0.591c0.13,0.113,0.303,0.193,0.469,0.246c1.324,0.42,2.688,0.527,4.058,0.389  c0.727-0.074,1.441-0.29,2.149-0.484c0.149-0.041,0.295-0.252,0.35-0.415c0.028-0.083-0.125-0.303-0.24-0.346  c-0.985-0.368-2.007-0.523-3.071-0.488C-63.267,81.913-63.357,82.274-63.447,82.636z"/><path fill-rule="evenodd" clip-rule="evenodd" d="M-69.182-30c0.226,0.497,0.438,0.961,0.65,1.427  c-0.024,0.014-0.049,0.027-0.073,0.041c-0.228-0.268-0.499-0.51-0.672-0.808c-0.257-0.443-0.521-0.555-0.923-0.192  c-0.09,0.082-0.206,0.134-0.34,0.218c1.528,1.739,2.958,3.498,2.745,5.846c-0.239-0.625-0.479-1.396-0.821-2.117  c-0.599-1.26-1.504-2.281-2.667-3.057c-0.117-0.078-0.396-0.076-0.498,0.01c-1.827,1.53-3.287,3.338-4.046,5.63  c-0.218,0.658-0.305,1.36-0.476,2.153c0.584,0,1.096,0.014,1.605-0.015c0.073-0.004,0.164-0.205,0.198-0.328  c0.196-0.713,0.345-1.44,0.572-2.143c0.417-1.29,1.196-2.371,2.13-3.361c-0.448,0.927-0.932,1.839-1.334,2.786  c-0.408,0.959-0.701,1.961-0.72,3.052c5.289,0,10.541,0,15.898,0c-0.881-4.136-2.965-7.212-7.001-8.763  c1.904,0.391,3.643,1.032,5.125,2.4c1.384,1.276,2.295,2.81,3.071,4.466c0.213,0.455,0.406,0.931,0.522,1.418  c0.103,0.431,0.318,0.523,0.721,0.515c1.082-0.024,2.164-0.008,3.118-0.008c-0.539,0.593-1.113,1.245-1.717,1.868  c-0.101,0.105-0.333,0.114-0.505,0.114c-7.703,0.005-15.405,0.006-23.108-0.008c-0.264,0-0.573-0.105-0.785-0.264  c-0.668-0.503-1.3-1.054-2.078-1.695c0.921,0,1.671,0,2.414,0c0.564-3.793,2.386-6.751,5.528-8.938  c-1.17-1.039-2.154-2.193-2.021-3.837c0.105-1.293,0.917-2.227,1.972-2.96c-0.184,0.295-0.383,0.581-0.548,0.886  c-0.67,1.246-0.619,2.468,0.208,3.62c0.367,0.512,0.795,0.982,1.224,1.444c0.083,0.09,0.314,0.1,0.456,0.064  c0.235-0.059,0.453-0.185,0.753-0.315c-1.25-0.908-2.037-2.004-1.605-3.607c0.339-1.26,1.232-1.983,2.514-2.516  c-0.424,0.487-0.777,0.856-1.089,1.257c-0.908,1.168-0.933,2.04-0.101,3.259c0.314,0.461,0.657,0.903,0.998,1.37  c0.979-0.132,1.99-0.269,3.042-0.411c0-0.211,0-0.451,0-0.741c-0.444,0-0.871,0-1.316,0c0.222-0.613,0.845-0.999,1.583-1.02  c1.037-0.029,1.698,0.286,1.997,0.979c-0.24,0-0.467-0.005-0.694,0.001c-0.211,0.006-0.423,0.023-0.654,0.037  c0,0.295,0,0.539,0,0.803c4.904,0.554,8.654,2.741,10.701,7.376c-2.09-3.448-5.14-5.568-9.061-6.422  C-65.943-30.845-67.586-30.689-69.182-30z"/><path fill-rule="evenodd" clip-rule="evenodd" d="M-86.835,35.473c-0.192,0.026-0.368,0.05-0.607,0.083  c-0.07,0.404-0.143,0.821-0.216,1.239c-0.019,0.001-0.037,0.001-0.055,0.002c-0.059-0.393-0.117-0.786-0.183-1.223  c-0.167-0.007-0.323-0.024-0.479-0.02c-2.546,0.069-5.092,0.151-7.639,0.201c-0.486,0.009-0.675,0.142-0.634,0.649  c0.044,0.554,0.01,1.114,0.01,1.823c1.799-0.861,3.016,0.297,4.335,1.095c0.032-0.034,0.064-0.068,0.096-0.102  c-0.471-0.488-0.942-0.976-1.477-1.529c1.003-0.036,1.953-0.123,2.896-0.076c0.318,0.016,0.628,0.359,0.927,0.574  c0.189,0.135,0.351,0.309,0.595,0.431c-0.147-0.334-0.295-0.668-0.441-0.998c0.733,0,1.478-0.019,2.222,0.004  c1.062,0.033,2.111,0.226,2.993,0.827c1.256,0.855,1.421,1.837,0.784,2.977c-0.573,1.026-1.464,1.739-2.493,2.244  c-1.132,0.555-2.295,1.054-3.473,1.505c-1.26,0.484-2.561,0.863-3.829,1.327c-2.929,1.069-5.977,1.657-9.026,2.221  c-1.65,0.305-3.309,0.292-4.903-0.384c-1.733-0.735-2.178-1.948-1.289-3.61c0.885-1.651,2.293-2.744,3.924-3.57  c0.228-0.115,0.57-0.079,0.84-0.024c0.74,0.151,1.469,0.349,2.373,0.57c-0.67-0.519-1.219-0.944-1.838-1.422  c0.955-0.35,1.903-0.638,2.798-1.043c0.877-0.396,1.639-0.16,2.43,0.195c0.522,0.234,1.061,0.431,1.662,0.567  c-0.581-0.46-1.161-0.919-1.817-1.438c0.694-0.061,0.65-0.495,0.641-0.939c-0.017-0.865-0.005-1.73-0.005-2.619  c0.263-0.038,0.489-0.07,0.772-0.111c-0.083-0.17-0.135-0.318-0.219-0.445c-1.328-2.024-3.63-3.214-6.109-2.389  c-1.126,0.375-1.737,1.255-2.268,2.297c0.226,0.068,0.356,0.107,0.551,0.166c-0.086,1.771-0.172,3.553-0.258,5.334  c-0.026,0.002-0.053,0.005-0.079,0.008c-0.145-1.524-0.29-3.047-0.436-4.583c-0.269-0.042-0.495-0.078-0.75-0.117  c0.058-1.465,0.584-2.661,1.853-3.418c1.167-0.697,2.41-1.059,3.817-0.898c2.333,0.266,4.678,0.429,7.019,0.628  c1.08,0.092,2.163,0.153,3.242,0.253c1.015,0.094,1.831,0.558,2.42,1.484c-3.03-0.208-6.061-0.416-9.192-0.63  c0.139,0.166,0.22,0.264,0.302,0.36c0.408,0.477,0.888,0.908,0.962,1.588c0.04,0.363,0.294,0.378,0.59,0.372  c2.782-0.063,5.564-0.118,8.347-0.175c0.089-0.002,0.178,0,0.313,0C-86.835,34.969-86.835,35.191-86.835,35.473z M-92.135,38.611  c0.678,0.833,1.306,1.652,1.35,2.64c-0.862-0.683-1.75-1.396-2.651-2.091c-0.151-0.116-0.376-0.25-0.537-0.219  c-0.803,0.153-1.597,0.359-2.445,0.559c0.822,0.929,1.522,1.807,1.761,3.089c-1.099-1.009-2.065-1.958-3.347-2.478  c-0.131-0.053-0.292-0.153-0.402-0.117c-0.96,0.317-1.912,0.66-2.867,0.994c1.288,0.794,2.033,1.831,2.434,3.288  c-0.456-0.33-0.826-0.553-1.142-0.836c-0.817-0.733-1.809-1.104-2.827-1.424c-0.172-0.054-0.431-0.075-0.561,0.016  c-1.339,0.94-2.737,1.819-3.358,3.471c-0.191,0.508-0.148,0.955,0.198,1.3c0.292,0.291,0.685,0.529,1.076,0.663  c1.335,0.457,2.7,0.228,4.014-0.065c2.797-0.623,5.588-1.292,8.347-2.065c1.311-0.367,2.567-0.963,3.804-1.548  c1.035-0.489,2.042-1.061,2.993-1.699c0.503-0.338,0.929-0.85,1.265-1.365c0.401-0.616,0.271-1.07-0.312-1.51  c-1.016-0.767-2.205-0.859-3.378-0.887c0.215,0.708,0.416,1.368,0.586,1.928c-0.471-0.397-1.006-0.755-1.422-1.219  C-90.308,38.199-91.168,38.356-92.135,38.611z"/><path fill-rule="evenodd" clip-rule="evenodd" d="M-140.204,2.174c-1.174-2.173-2.565-3.998-4.908-5.019  c0.415-0.247,0.793-0.505,1.203-0.694c0.117-0.054,0.381,0.043,0.485,0.156c0.644,0.705,1.275,1.422,1.883,2.159  c0.416,0.504,0.787,1.045,1.142,1.521c0-0.591-0.072-1.276,0.015-1.941c0.198-1.528,0.974-2.622,2.488-3.172  c1.211-0.44,2.462-0.536,3.72-0.664c0.478-0.049,0.975-0.136,1.412-0.325c0.598-0.258,0.685-0.711,0.337-1.219  c0.651,0.098,0.964,0.435,0.973,1.047c0.02,1.323-1.232,2.701-2.627,2.884c-1.18,0.155-2.361,0.292-3.541,0.449  c-1.45,0.192-2.515,1.626-2.654,3.034c-0.02,0.199,0.067,0.428,0.16,0.615c0.192,0.386,0.421,0.754,0.663,1.178  c0.279-0.048,0.585-0.075,0.875-0.158c0.289-0.083,0.562-0.224,0.841-0.339c0.447,1.04-0.014,1.815-1.139,1.962  c-1.089,0.143-2.113-0.169-3.144-0.428c-1.108-0.277-2.184-0.204-3.237,0.223c-0.597,0.242-0.973,0.683-1.26,1.267  c-1.041,2.122-0.137,5.599,1.524,7.08c1.144,1.019,2.354,1.819,3.732,2.417c0.166,0.072,0.402,0.112,0.56,0.049  c1.259-0.503,2.569-0.535,3.833-0.198c0.896,0.238,1.533,0.067,2.206-0.5c1.79-1.511,3.117-3.305,3.542-5.651  c0.303-1.667-0.135-3.193-1.098-4.562c-0.327-0.464-0.714-0.903-1.141-1.276c-0.71-0.621-1.605-0.786-2.658-0.843  c0.211-0.076,0.298-0.137,0.383-0.134c1.228,0.037,2.392,0.214,3.314,1.169c2.594,2.687,2.879,6.457,0.691,9.519  c-0.324,0.453-0.64,0.912-1.013,1.445c0.383,0.167,0.721,0.306,1.052,0.46c1.49,0.695,3.034,1.163,4.698,1.127  c0.233-0.005,0.469-0.03,0.699-0.072c1.675-0.303,2.446-1.322,2.042-2.977c-0.291-1.189-0.201-2.317,0.001-3.48  c0.236-1.366-0.384-2.481-1.514-2.813c-1.125-0.331-2.264-0.443-3.439-0.23c0.493-0.342,1.503-0.55,2.552-0.508  c1.079,0.043,2.051,0.396,2.879,1.094c0.591,0.498,0.809,1.126,0.594,1.895c-0.115,0.414-0.184,0.84-0.211,1.278  c0.592-0.737,0.902-1.594,0.773-2.519c-0.123-0.876-0.412-1.729-0.636-2.628c1.366,1.867,1.621,3.817,0.592,5.874  c1.021-0.107,2.012-0.212,3.052-0.321c-0.307,0.943-0.376,0.947-1.181,0.889c-0.65-0.047-1.309,0.029-1.995,0.151  c1.541,1.006,2.55,2.254,2.483,4.291c-0.442-1.322-1.529-1.794-2.511-2.485c-0.033,0.141-0.07,0.218-0.066,0.293  c0.139,2.293-1.097,3.103-2.982,3.348c-1.636,0.212-3.189-0.251-4.678-0.882c-0.927-0.393-1.809-0.889-2.688-1.327  c-0.676,0.508-1.351,1.018-2.028,1.524c-0.309,0.23-0.625,0.262-1.012,0.152c-1.538-0.433-2.994-0.227-4.356,0.629  c-0.106,0.067-0.304,0.041-0.442-0.001c-1.483-0.445-2.798-1.151-4.006-2.165c-1.435-1.203-2.348-2.683-2.844-4.426  c-0.423-1.489-0.415-3.009,0.248-4.452c0.896-1.952,2.524-2.814,4.589-2.906C-142.104,2-141.22,2.119-140.204,2.174z"/><path fill-rule="evenodd" clip-rule="evenodd" d="M-90.387,3.129c-2.545-0.484-5.005-0.23-7.338,0.694  c-2.309,0.915-4.195,2.47-5.679,4.491c0.975-1.903,2.364-3.439,4.103-4.694c-0.835-0.26-3.465,0.752-4.592,1.954  c-2.062,2.196-2.662,3.95-2.321,7.458c0.196,0.009,0.401,0.019,0.689,0.032c-0.053-1.737-0.088-3.451,0.811-5.003  c-0.484,1.621-0.567,3.258-0.231,5.019c3.527,0,7.064,0,10.601,0c3.517,0,7.034,0,10.656,0c-0.441,0.527-0.799,0.994-1.205,1.415  c-0.125,0.129-0.378,0.188-0.573,0.188c-7.412,0.01-14.824,0.013-22.236-0.003c-0.216,0-0.469-0.182-0.641-0.345  c-0.398-0.378-0.758-0.797-1.197-1.268c0.668,0,1.27,0,1.813,0c0.174-1.132,0.278-2.209,0.521-3.253  c0.181-0.782,0.562-1.516,0.811-2.285c0.102-0.312,0.163-0.671,0.117-0.991c-0.165-1.158-0.537-2.24-1.416-3.197  c1.33,0.231,2.055,1.089,2.688,2.156c0.209-0.174,0.425-0.306,0.579-0.49c0.927-1.111,2.209-1.601,3.532-1.976  c0.898-0.254,1.837-0.356,2.747-0.573c0.221-0.052,0.495-0.247,0.58-0.446c0.64-1.495,1.43-2.873,2.712-3.924  c0.202-0.166,0.327-0.426,0.482-0.637c-0.453-0.576-0.52-0.956-0.205-1.241c0.323-0.292,0.592-0.138,0.854,0.171  c0.37-0.351,0.792-0.285,1.077,0.058c0.152,0.183,0.209,0.617,0.095,0.815c-0.275,0.479-0.763,0.554-1.247,0.335  c-0.421,0.321-0.462,0.72-0.437,1.183c0.041,0.715,0.011,1.434-0.043,2.144c-0.091-0.575-0.183-1.151-0.285-1.797  C-96-0.19-96.443,1.081-97.095,2.376c0.374-0.031,0.626-0.012,0.853-0.078c2.005-0.59,4.029-0.59,6.06-0.188  c0.427,0.084,0.703-0.009,1.059-0.275c1.078-0.808,2.212-1.542,3.338-2.285c0.188-0.124,0.44-0.195,0.667-0.206  c0.718-0.033,1.071-0.497,1.339-1.069c0.048-0.102,0.034-0.239,0.029-0.359c-0.003-0.069-0.05-0.135-0.066-0.205  c-0.121-0.522,0.112-1.025,0.537-1.167c0.339-0.113,0.504,0.014,0.795,0.607c0.532-0.145,0.88,0.044,1.012,0.547  c0.128,0.493-0.07,0.808-0.612,0.958c-0.121,0.033-0.248,0.053-0.374,0.063c-0.686,0.058-1.098,0.557-1.199,1.225  c-0.244,1.619-0.544,3.23-0.845,4.84c-0.05,0.27-0.033,0.416,0.171,0.646c0.759,0.861,1.457,1.776,2.226,2.73  c-0.313,0.055-0.538,0.084-0.757,0.136c-0.57,0.134-1.02,0.413-1.277,0.98c-0.276,0.607-0.564,1.214-0.915,1.78  c-0.213,0.344-0.555,0.608-0.838,0.909c-0.045-0.04-0.09-0.08-0.135-0.12c0.059-0.093,0.126-0.183,0.176-0.281  c0.233-0.457,0.577-0.896,0.664-1.38c0.133-0.742,0.374-1.398,0.898-1.924c0.352-0.353,0.314-0.637-0.02-0.946  c-0.276-0.255-0.55-0.514-0.872-0.816c-0.547,0.927-1.062,1.8-1.577,2.673c0.944-2.187,1.806-4.379,1.961-6.919  c-0.572,1.339-1.091,2.554-1.611,3.769c-0.008-0.007-0.017-0.015-0.025-0.022c0.415-1.667,0.83-3.335,1.245-5.002  c-0.065-0.035-0.13-0.069-0.196-0.103c-2.821,0.783-4.795,2.785-6.829,4.759c0.209-0.341,0.419-0.682,0.669-1.089  c-2.268-0.376-4.423-0.166-6.576,0.487c0.219-0.109,0.433-0.229,0.658-0.326c0.231-0.1,0.472-0.18,0.711-0.264  c0.255-0.089,0.507-0.224,0.77-0.252c1.378-0.147,2.759-0.345,4.141-0.363C-91.191,3.837-90.746,3.723-90.387,3.129z"/><path fill-rule="evenodd" clip-rule="evenodd" d="M-92.879-27.243c0.8-0.349,1.575-0.556,2.198-0.984  c1.784-1.227,1.338-3.517-0.084-4.42c-0.492-0.313-1.151-0.424-1.749-0.487c-0.47-0.049-0.654-0.207-0.827-0.635  c-0.281-0.697-0.652-1.365-1.046-2.008c-0.51-0.833-1.335-1.328-2.201-1.685c-2.695-1.108-6.074-0.133-7.458,2.685  c-0.27,0.551-0.558,0.561-1.046,0.585c-0.803,0.041-1.644,0.075-2.39,0.337c-1.701,0.596-2.133,2.293-1.116,3.778  c0.605,0.884,1.419,1.225,2.486,1.193c0,3.086,0,6.134,0,9.219c0.605,0,1.159,0,1.777,0c0-3.137,0-6.253,0-9.453  c2.106,0.883,4.145,1.707,6.364,0.522c-0.451,0.656-1.495,1.314-2.542,1.367c-0.95,0.048-1.912-0.138-2.899-0.224  c0,2.487,0,5.11,0,7.729c3.606,0,7.18,0,10.803,0c0,0.337,0,0.703,0,1.115c-5.16,0-10.319,0-15.56,0c0-0.199,0-0.409,0-0.618  c0-2.567-0.007-5.134,0.01-7.702c0.002-0.392-0.094-0.615-0.476-0.779c-1.398-0.602-2.233-1.632-2.241-3.207  c-0.008-1.618,0.748-2.762,2.182-3.515c0.767-0.402,1.598-0.39,2.403-0.553c0.17-0.035,0.386-0.172,0.458-0.321  c1.378-2.871,4.67-4.417,7.777-3.737c2.201,0.481,3.722,1.784,4.779,3.72c0.087,0.159,0.349,0.297,0.539,0.312  c1.583,0.122,2.867,0.748,3.811,2.065c0.762,1.063,0.758,3.061-0.052,4.082c-0.798,1.007-1.704,1.828-3.092,1.832  c-0.167,1.405-0.328,2.752-0.489,4.1c-0.041-0.001-0.082-0.002-0.123-0.003C-92.749-24.393-92.815-25.854-92.879-27.243z"/><path fill-rule="evenodd" clip-rule="evenodd" d="M-22.106,45.921c-0.051,0.488,0.016,1.029-0.175,1.455  c-0.542,1.208-1.342,2.204-2.781,2.375c-0.71,0.084-1.437,0.166-2.144,0.104c-1.222-0.108-2.069-0.815-2.483-1.964  c-0.66-1.832-1.275-3.679-1.92-5.553c-0.229,0.154-0.448,0.302-0.767,0.517c0.261-0.479,0.468-0.859,0.675-1.241  c-0.048-0.046-0.096-0.092-0.145-0.138c-0.637,0.293-1.274,0.586-1.912,0.879c-0.019-0.026-0.038-0.053-0.056-0.079  c0.611-0.444,1.221-0.888,1.832-1.332c-0.008-0.055-0.017-0.109-0.025-0.165c-0.616-0.171-1.248,0.039-1.903-0.035  c0.406-0.154,0.82-0.29,1.214-0.469c0.209-0.095,0.384-0.266,0.574-0.403c-0.15-0.173-0.297-0.351-0.453-0.519  c-0.058-0.062-0.137-0.103-0.218-0.162c0.338-0.244,0.844,0.294,1.077-0.319c0.131-0.346,0.538-0.603,0.293-0.966  c0.341-0.044,0.685-0.061,1.014-0.141c0.342-0.083,0.772-0.131,0.627-0.746c0.245,0.572,0.723,0.605,1.076,0.418  c0.357-0.189,0.594-0.606,1.001-1.052c-0.081,0.416-0.128,0.682-0.184,0.946c-0.084,0.396,0.045,0.532,0.424,0.406  c0.323-0.107,0.639-0.24,0.949-0.383c0.307-0.141,0.603-0.308,0.98-0.367c-0.563,0.442-1.126,0.884-1.712,1.344  c0.432,0.731,1.052,0.079,1.572,0.321c-0.318,0.164-0.624,0.322-0.996,0.514c0.255,0.291,0.485,0.552,0.751,0.856  c0.687-0.716,1.269-1.436,1.458-2.398c0.198-1.004-0.478-1.819-1.501-1.885c-1.173-0.076-2.271,0.24-3.311,0.695  c-1.3,0.569-2.708,1.039-3.664,2.146c-0.733,0.849-1.386,1.806-1.886,2.81c-0.655,1.314-0.232,2.067,1.141,2.544  c-0.583-0.092-1.199-0.1-1.742-0.302c-0.497-0.185-0.782-0.725-0.694-1.24c0.137-0.805,0.257-1.688,0.675-2.356  c1.15-1.836,2.767-3.255,4.747-4.13c1.426-0.63,2.944-1.131,4.554-1.032c0.513,0.031,1.037,0.152,1.519,0.332  c0.581,0.216,1.014,0.616,1.024,1.318c0.003,0.213,0.064,0.424,0.101,0.647c0.853-1.092,0.685-2.764-0.387-3.664  c-1.632-1.37-3.572-1.653-5.609-1.489c-1.62,0.131-3.108,0.671-4.582,1.377c-1.247,0.597-2.203,1.498-2.98,2.523  c-1.131,1.49-1.88,3.208-1.76,5.166c0.061,1.001,0.493,1.917,1.217,2.528c0.849,0.716,1.903,1.176,3.062,1.262  c0.125,0.009,0.249,0.017,0.367,0.064c-1.26,0.1-2.481-0.064-3.593-0.698c-0.509-0.29-1.054-0.619-1.403-1.069  c-0.998-1.29-1.143-2.807-0.899-4.374c0.221-1.416,0.756-2.686,1.642-3.835c2.443-3.174,5.624-4.756,9.64-4.509  c1.725,0.106,3.325,0.715,4.713,1.735c1.832,1.346,2.433,3.631,1.5,5.376c-0.625,1.167-1.396,2.224-2.434,3.066  c-0.111,0.09-0.215,0.189-0.36,0.318c0.539,0.666,1.068,1.321,1.598,1.976c0.031-0.033,0.062-0.066,0.092-0.099  c-0.631-0.539-1.29-1.049-1.887-1.624c-0.516-0.497-0.965-1.063-1.439-1.602c-0.238-0.271-0.486-0.536-0.696-0.828  c-0.494-0.685-1.279-0.922-2.052-0.562c-0.34,0.159-0.68,0.347-0.969,0.583c-0.682,0.56-0.807,1.116-0.47,1.927  c0.822,1.979,1.654,3.956,2.481,5.933c0.3,0.717,0.762,1.322,1.406,1.741c0.984,0.64,2.538,0.473,3.524-0.255  c0.774-0.572,1.306-1.277,1.495-2.23C-22.225,45.914-22.166,45.917-22.106,45.921z"/><path fill-rule="evenodd" clip-rule="evenodd" d="M-56.015,45.405c-0.387,0-0.653,0-0.919,0c-2.981,0.001-5.963,0.05-8.941-0.032  c-0.67-0.018-1.35-0.448-1.982-0.772c-0.493-0.251-0.957-0.592-1.366-0.967c-0.393-0.36-0.706-0.81-1.043-1.228  c-1.883-2.328-2.219-5.1-2.274-7.952c-0.001-0.05,0.027-0.101,0.062-0.223c3.012,0.11,6.033,0.221,9.23,0.339  c-0.477-0.397-0.824-0.69-1.175-0.98c-0.979-0.808-1.78-1.748-2.112-3.003c-0.318-1.202,0.31-2.596,1.392-3.16  c1.333-0.695,2.627-0.889,4.15-0.669c-0.607,0.202-1.374,0.394-2.089,0.707c-1.427,0.625-1.946,2.759-1.132,4.083  c0.75,1.217,1.889,2.013,2.9,2.95c0.136,0.125,0.396,0.152,0.601,0.161c1.498,0.063,2.997,0.109,4.497,0.273  c-1.463,0-2.927,0-4.391,0c-0.028,0.061-0.056,0.122-0.084,0.183c0.465,0.44,0.962,0.851,1.387,1.326  c0.608,0.683,1.084,1.427,0.985,2.428c-0.106,1.081-0.653,1.866-1.54,2.473c0.141-0.254,0.275-0.512,0.425-0.76  c0.593-0.977,0.329-1.902-0.147-2.823c-0.647-1.252-1.864-1.871-2.934-2.651c-0.093-0.068-0.235-0.094-0.355-0.094  c-1.625-0.006-3.249-0.004-4.925-0.004c-0.192,3.272,0.665,6.076,2.627,8.556c-1.229-1.01-2.345-2.062-2.872-3.681  c-0.504-1.547-0.769-3.108-0.805-4.734c-0.576,0-1.109,0-1.689,0c-0.06,1.214,0.167,2.357,0.354,3.514  c0.29,1.801,1.242,3.24,2.451,4.491c0.929,0.961,2.125,1.41,3.553,1.377c3.52-0.081,7.043-0.038,10.565-0.043  c0.067,0,0.134,0.017,0.324,0.042c-0.823,0.967-1.604,1.851-2.341,2.77c-0.273,0.34-0.542,0.481-0.989,0.478  c-2.529-0.023-5.059-0.005-7.589-0.004c-1.643,0-3.286-0.02-4.929-0.001c-0.458,0.005-0.771-0.087-1.091-0.478  c-0.806-0.988-1.697-1.907-2.509-2.926c0.05,0.018,0.109,0.025,0.15,0.056c0.88,0.684,1.75,1.38,2.643,2.048  c0.153,0.114,0.396,0.151,0.598,0.151c3.92,0.009,7.84,0,11.76,0.017c0.427,0.002,0.71-0.118,0.936-0.475  C-56.5,45.926-56.287,45.725-56.015,45.405z"/><path fill-rule="evenodd" clip-rule="evenodd" d="M-38.037-25.314c-0.188,0.359-0.338,0.646-0.521,0.994  c-1.773-1.455-3.706-2.506-6.094-2.425c0.014-0.481,0.336-0.633,0.68-0.629c0.646,0.006,1.302,0.034,1.935,0.153  c0.76,0.144,1.507,0.371,2.248,0.6c0.711,0.22,1.315-0.018,1.895-0.377c0.256-0.159,0.48-0.367,0.777-0.598  c-0.219,0-0.404,0-0.588,0c-3.183-0.001-6.365-0.011-9.547,0.005c-0.794,0.004-1.306-0.395-1.814-1.04c5.369,0,10.65,0,16.017,0  c-0.419,0.573-0.834,1.031-1.564,1.034c-0.681,0.003-1.361,0-2.077,0c0.195,0.219,0.356,0.399,0.577,0.647  c-0.296,0.08-0.543,0.091-0.719,0.208c-0.235,0.157-0.539,0.371-0.591,0.608c-0.08,0.367,0.289,0.471,0.601,0.547  c1.801,0.442,3.599,0.897,5.405,1.322c0.147,0.034,0.423-0.08,0.499-0.208c0.895-1.518,1.921-2.936,3.333-4.006  c0.652-0.496,1.408-0.883,2.165-1.207c1.041-0.446,2.116-0.832,3.394-0.828c0.14,3.738,0.278,7.461,0.417,11.186  c-0.043,0.002-0.087,0.005-0.13,0.008c-0.38-3.43-0.761-6.86-1.147-10.342c-1.896,0.417-3.599,1.107-4.86,2.627  c-0.481,0.58-1.03,1.122-1.414,1.761c-0.975,1.624-1.547,3.409-1.84,5.277c-0.131,0.835-0.198,1.681-0.299,2.563  c-0.479,0-0.974,0-1.577,0c0.108-0.679,0.184-1.351,0.331-2.007c0.093-0.415-0.019-0.609-0.402-0.781  c-1.496-0.671-2.976-1.375-4.46-2.072c-0.227-0.106-0.441-0.24-0.63-0.433c1.893,0.705,3.785,1.409,5.732,2.133  c0.267-0.895,0.502-1.684,0.764-2.562C-33.707-23.874-35.85-24.586-38.037-25.314z"/><path fill-rule="evenodd" clip-rule="evenodd" d="M-50.669,9.31c-1.049-0.235-2.087-0.551-3.148-0.688  c-2.391-0.308-4.748-0.09-7.072,0.595c-0.875,0.258-1.602,0.69-2.3,1.246c-1.23,0.979-0.914,2.343,0.625,2.948  c0.92,0.362,1.876,0.503,2.867,0.267c0.163-0.039,0.377,0.06,0.546,0.14c1.565,0.735,3.188,1.245,4.925,1.373  c1.934,0.143,3.583-0.46,4.939-1.838c0.208-0.212,0.33-0.509,0.483-0.752c0,0.736,0.2,1.568-0.06,2.215  c-0.231,0.575-0.913,1.049-1.5,1.385c-1.453,0.83-3.064,0.969-4.671,0.621c-1.351-0.292-2.664-0.756-3.998-1.129  c-0.288-0.081-0.592-0.112-0.891-0.14c-0.964-0.088-1.964-0.035-2.886-0.279c-1.082-0.286-1.787-1.051-1.754-2.294  c0.007-0.267-0.057-0.535-0.095-0.858c-0.622,0.076-1.221,0.149-1.82,0.223c-0.012-0.027-0.023-0.055-0.036-0.083  c0.283-0.155,0.554-0.339,0.85-0.459c0.529-0.214,1.029-0.415,1.321-0.979c0.63-1.213,1.885-1.583,3.021-2.04  c0.844-0.339,1.786-0.424,2.661-0.7c0.52-0.164,1.039-0.413,1.478-0.734c1.017-0.744,2.087-1.458,2.936-2.371  c0.583-0.626,1.177-0.773,1.914-0.782c0.697-0.008,1.395-0.002,2.163-0.002c-0.247-0.539-0.503-1.101-0.774-1.691  c1.033,0.729,1.254,1.842,1.563,3.003c-0.847-0.169-1.634-0.328-2.422-0.485c-0.124-0.025-0.25-0.04-0.373-0.066  c-0.774-0.165-1.284,0.147-1.79,0.754c-0.685,0.822-1.52,1.519-2.282,2.26c0.921,0.119,1.909,0.181,2.866,0.388  c0.94,0.204,1.848,0.556,2.771,0.842C-50.63,9.237-50.649,9.273-50.669,9.31z"/><path fill-rule="evenodd" clip-rule="evenodd" d="M-57.71,2.207c-2.331-0.349-4.651-0.685-7.005-0.633  c-0.792,0.018-1.582,0.122-2.372,0.2c-0.212,0.021-0.582-0.019-0.46,0.333c0.08,0.233,0.364,0.511,0.595,0.551  c0.396,0.068,0.822-0.056,1.235-0.06c1.207-0.012,2.414-0.004,3.621,0.115c-1.545,0.186-3.091,0.371-4.668,0.561  c0.888,1.681,1.344,3.4,1.227,5.211c-0.056,0.866-0.22,1.805-0.628,2.549c-0.688,1.252-2.325,1.866-3.86,1.073  c-1.684-0.869-2.468-2.408-3.169-4.024c-0.837-1.926-0.979-3.958-0.744-6.008c0.093-0.807,0.439-1.584,0.752-2.346  c-0.152,0.857-0.38,1.708-0.443,2.571c-0.166,2.257,0.417,4.357,1.436,6.365c0.501,0.989,1.143,1.824,2.044,2.468  c1.181,0.844,2.735,0.494,3.443-0.782c0.517-0.933,0.555-1.928,0.405-2.949c-0.258-1.761-1.04-3.284-2.104-4.688  c-0.133-0.175-0.197-0.453-0.184-0.677c0.062-1.041,0.074-2.061-0.595-2.953c-0.411-0.548-0.902-0.977-1.757-1.148  c1.302-0.276,2.455-0.24,3.605-0.104c1.893,0.224,3.724,0.719,5.496,1.408c1.643,0.639,3.267,1.33,4.888,2.021  c0.842,0.359,1.662,0.771,2.474,1.204c-4.32-1.668-8.695-3.053-13.458-3.037c0.115,0.513,0.189,0.936,0.316,1.343  c0.031,0.1,0.238,0.213,0.358,0.207c2.343-0.134,4.654,0.183,6.958,0.516C-59.424,1.621-58.574,1.963-57.71,2.207z"/><path fill-rule="evenodd" clip-rule="evenodd" d="M-92.334,82.088c-1.723-0.578-3.528-1.185-5.305-1.781  c0.805-0.949,1.564-1.845,2.331-2.75c0.25,0.283,0.508,0.575,0.766,0.866c0.047-0.039,0.094-0.079,0.141-0.118  c-0.169-0.223-0.336-0.447-0.51-0.666c-0.203-0.255-0.231-0.492-0.036-0.783c0.229-0.343,0.405-0.722,0.697-1.252  c0.987,1.991,1.916,3.866,2.867,5.785c1.783-1.243,3.823-1.424,5.992-1.099c-0.81,1.156-3.316,2.84-4.859,2.86  c0.15,1.214-0.467,2.129-1.172,3.019c-0.357,0.451-0.662,0.943-0.991,1.415c-0.134,0.191-0.271,0.381-0.484,0.525  c-0.299-1.078-0.507-2.115-0.294-3.144C-92.988,83.979-92.621,83.026-92.334,82.088z M-95.943,79.867  c0.49,0.183,0.93,0.245,1.207-0.195c0.241-0.381-0.013-0.667-0.351-0.903C-95.362,79.122-95.632,79.468-95.943,79.867z"/><path fill-rule="evenodd" clip-rule="evenodd" d="M-23.096-33.327c0.52-0.942,0.47-1.712-0.083-2.026  c-0.4-0.228-0.628-0.091-1.169,0.722c-0.698-0.678-0.962-1.502-0.883-2.435c0.012-0.138,0.236-0.297,0.397-0.373  c0.24-0.112,0.51-0.159,0.764-0.285c-0.637-0.12-1.288-0.185-1.888,0.104c-1.413,0.681-1.9,0.839-1.759,2.33  c0.013,0.14-0.13,0.323-0.247,0.44c-0.253,0.255-0.535,0.482-0.862,0.77c0.89,0.737,0.401,1.518,0.183,2.363  c0.706,0.131,1.369,0.254,2.076,0.385c0,0.256,0,0.519,0,0.726c1.346-0.197,2.657-0.389,3.968-0.582  c0.009,0.053,0.018,0.106,0.026,0.16c-0.78,0.188-1.578,0.324-2.337,0.577c-0.762,0.253-1.487,0.622-2.269,0.957  c0-0.433,0-0.868,0-1.305c-0.718-0.175-1.393-0.34-2.089-0.51c0.077-1.006,0.755-2.018-0.279-2.863  c0.145-0.135,0.211-0.225,0.299-0.273c0.732-0.407,1.311-0.89,1.067-1.866c-0.033-0.132,0.046-0.348,0.148-0.448  c0.385-0.372,0.552-0.753,0.303-1.285c-0.043-0.093,0.164-0.421,0.31-0.467c0.921-0.291,1.845-0.629,2.794-0.757  c0.692-0.094,1.438,0.045,2.136,0.195c1.757,0.38,2.257,1.759,1.917,3.141c-0.248,1.004-0.715,1.954-1.11,2.918  c-0.033,0.08-0.278,0.144-0.391,0.108C-22.413-33.014-22.733-33.173-23.096-33.327z"/><path fill-rule="evenodd" clip-rule="evenodd" d="M-46.393-29.763c3.483,0,6.93,0,10.491,0c-0.483-1.393-1.4-2.29-2.676-2.81  c-1.253-0.512-2.579-0.382-4.019-0.228c3.637-1.568,7.205,0.565,8.121,3.743c-4.478,0-8.943,0-13.458,0  c-0.014-1.774,0.887-3.042,2.156-4.107c1.248-1.047,2.654-1.726,4.343-1.701c-0.318-0.779-0.265-1.223,0.177-1.51  c0.393-0.255,0.794-0.226,1.157,0.064c0.382,0.305,0.405,0.774,0.078,1.41c3.062,0.38,5.044,2.116,6.196,4.893  c-0.577-0.701-1.121-1.432-1.736-2.098c-1.346-1.458-3.034-2.175-5.021-2.075c-1.811,0.091-3.399,0.77-4.708,2.035  C-45.814-31.642-46.26-30.605-46.393-29.763z"/><path fill-rule="evenodd" clip-rule="evenodd" d="M77.956,25.176c-1.017-0.832-2.2-0.576-2.78,0.499  c-1.814,3.364-2.879,6.95-1.983,10.75c0.916,3.886,3.225,4.72,5.953,3.234c1.709-1.114,2.79-3.974,2.942-4.363  c-0.128,4.208-1.767,6.931-4.731,7.706c0.135,2.256,0.258,4.552,0.414,6.847c0.61,9.046,1.067,18.104,1.872,27.131  c0.264,2.958-5.33,4.927-6.065,0.067c0.61-10.98,1.268-21.963,1.874-32.946c0.024-0.44,0.07-0.913,0.091-1.122  c-2.588-0.975-4.577-3.225-5.069-5.701c-1.054-5.299,0.292-10.012,4.134-13.894c1.188-1.2,2.638-1.218,3.689,0.117  c1.011,1.28,1.687,2.823,2.51,4.25C80.721,27.79,78.913,25.958,77.956,25.176z M76.527,59.277c-0.056,0-0.112,0.002-0.166,0.005  c-0.08,1.215-0.167,2.436-0.233,3.654c-0.246,4.375-0.475,8.752-0.739,13.128c-0.052,0.85,0.284,1.492,1.068,1.479  c0.359-0.005,1.031-0.797,1.013-1.207C77.211,70.65,76.857,64.964,76.527,59.277z"/><path fill-rule="evenodd" clip-rule="evenodd" d="M-113.296,60.738c0.96,0.195,1.867,0.329,2.745,0.569  c1.833,0.503,3.583,1.207,5.177,2.274c0.343,0.229,0.395,0.41,0.288,0.784c-0.761,2.644-2.238,4.774-4.48,6.372  c-0.307,0.218-0.61,0.439-0.955,0.688C-112.869,68.265-113.745,64.75-113.296,60.738z M-110.615,69.686  c1.124-1.029,2.267-1.967,2.914-3.34c0.291-0.617,0.578-1.237,0.825-1.873c0.051-0.13-0.036-0.438-0.141-0.486  c-1.311-0.596-2.629-1.181-3.964-1.721c-0.491-0.198-1.032-0.272-1.633-0.425C-112.922,64.737-112.223,67.275-110.615,69.686z"/><path fill-rule="evenodd" clip-rule="evenodd" d="M16.43,36.592c0.051,0.707,0.054,1.424,0.199,2.112  c0.066,0.315,0.425,0.569,0.652,0.853c0.188-0.313,0.524-0.617,0.543-0.938c0.254-4.195,0.827-13.083,1.113-13.605  c0.211,4.042,0.389,7.498,0.604,11.539c0.041,0.753,0.024,1.527,0.208,2.246c0.083,0.326,0.589,0.544,0.904,0.811  c0.201-0.309,0.559-0.607,0.58-0.928c0.238-3.577,0.828-13.026,1.1-13.681c0.02,0.411-0.01,1.805,0.009,2.217  c0.176,3.864,0.267,7.735,0.566,11.59c0.126,1.618-0.393,2.629-1.821,3.189c-1.156,0.454-1.388,1.154-1.297,2.397  c0.783,10.785,1.462,21.577,2.186,32.367c-0.008,2.803-6.32,3.271-6.053-1.306c0.477-8.158,0.939-16.314,1.41-24.471  c0.125-2.166,0.236-4.337,0.488-6.49c0.149-1.283-0.12-2.258-1.359-2.71c-1.913-0.699-2.136-2.059-1.982-3.886  c0.392-4.604,0.538-8.226,0.819-12.839C15.355,25.058,16.127,32.414,16.43,36.592z M18.894,59.053c-0.065,0-0.131,0.002-0.197,0.004  c-0.072,0.838-0.165,1.67-0.211,2.51c-0.252,4.561-0.469,9.12-0.758,13.679c-0.058,0.897,0.151,1.612,1.053,1.623  c0.914,0.01,1.141-0.729,1.085-1.61C19.521,69.859,19.213,64.453,18.894,59.053z"/><path fill-rule="evenodd" clip-rule="evenodd" d="M-93.649,75.455c-1.846-3.366-4.059-6.466-6.75-9.285  c1.602-0.824,3.125-1.607,4.666-2.4c0.051,0.44,0.068,0.782,0.133,1.115c0.125,0.639,0.611,0.985,1.095,1.349  c0.168,0.126,0.337,0.397,0.326,0.593c-0.062,1.021,0.334,1.788,1.199,2.365c-0.374,0.977-0.195,1.838,0.567,2.567  c0.055,0.053,0.072,0.198,0.043,0.276c-0.288,0.763-0.256,1.514,0.057,2.266c-0.627-0.62-0.998-1.337-0.905-2.283  c-0.857-0.395-1.117-1.12-1.044-2.03c0.011-0.139-0.101-0.345-0.221-0.428c-0.726-0.503-1.13-1.148-1.035-2.062  c0.011-0.102-0.051-0.231-0.118-0.316c-0.346-0.437-0.705-0.862-1.161-1.414c-0.508,0.323-1.158,0.738-1.792,1.143  c0.959,1.421,1.874,2.789,2.802,4.148C-94.859,72.419-94.159,73.888-93.649,75.455z"/><path fill-rule="evenodd" clip-rule="evenodd" d="M-109.965,72.295c1.726-1.256,3.176-2.574,4.25-4.381  c1.147,0.833,2.259,1.641,3.452,2.507c-0.422,0.536-0.809,1.047-1.217,1.54c-0.321,0.388-0.625,0.809-1.014,1.117  c-0.772,0.614-1.592,1.17-2.41,1.724c-0.102,0.069-0.366,0.044-0.459-0.042C-108.235,73.957-109.087,73.132-109.965,72.295z   M-106.317,71.864c0.882,0.605,1.977,0.465,2.435-0.27c0.388-0.623,0.091-1.421-0.727-1.894  C-105.17,70.411-105.733,71.124-106.317,71.864z"/><path fill-rule="evenodd" clip-rule="evenodd" d="M-101.621,71.021c0.883,0.823,1.812,1.688,2.742,2.556  c-0.896,1.261-1.738,2.449-2.969,3.288c-0.075,0.051-0.148,0.104-0.218,0.16c-1.141,0.928-0.755,0.934-2.158,0.028  c-0.59-0.381-1.181-0.762-1.768-1.148c-0.114-0.074-0.211-0.174-0.308-0.254c0.866-0.71,1.754-1.337,2.518-2.091  C-103.02,72.808-102.382,71.929-101.621,71.021z M-100.914,72.657c-0.507,0.637-0.99,1.242-1.469,1.843  c0.645,0.591,1.525,0.517,2.031-0.125C-99.957,73.874-100.18,73.185-100.914,72.657z"/><path fill-rule="evenodd" clip-rule="evenodd" d="M-57.331,43.566c0.462-0.692,0.873-1.365,1.351-1.985  c0.132-0.172,0.458-0.216,0.706-0.273c1.469-0.34,2.421-1.563,2.321-3.064c-0.653,0-1.313,0-2.005,0  c0.084-0.7,0.161-1.337,0.247-2.055c0.588,0,1.192,0,1.797,0c0.613,0,1.226,0,1.923,0c0,0.558,0.104,1.115-0.021,1.614  c-0.271,1.077-0.519,2.203-1.051,3.155c-0.385,0.691-1.153,1.228-1.854,1.668C-54.932,43.263-56.112,43.473-57.331,43.566z"/><path fill-rule="evenodd" clip-rule="evenodd" d="M-27.903,69.946c-0.318,0.612-0.575,1.123-0.846,1.627  c-0.536,0.997-1.083,1.988-1.62,2.985c-0.445,0.826-0.887,0.964-1.71,0.518c-1.281-0.693-2.57-1.372-3.84-2.086  c-0.847-0.477-0.932-0.863-0.474-1.714c0.691-1.285,1.376-2.574,2.07-3.858c0.424-0.785,0.844-0.915,1.636-0.491  c1.332,0.712,2.667,1.418,3.975,2.171C-28.401,69.276-28.193,69.633-27.903,69.946z M-33.302,67.408  c-0.17,0.138-0.414,0.251-0.528,0.442c-0.62,1.036-1.218,2.086-1.798,3.145c-0.106,0.194-0.141,0.456-0.124,0.68  c0.013,0.173,0.116,0.412,0.253,0.489c1.115,0.62,2.237,1.229,3.378,1.801c0.552,0.275,0.943,0.098,1.243-0.471  c0.487-0.922,0.967-1.848,1.45-2.771c0.436-0.833,0.347-1.144-0.47-1.611c-0.642-0.366-1.276-0.747-1.933-1.084  C-32.276,67.798-32.755,67.635-33.302,67.408z"/><path fill-rule="evenodd" clip-rule="evenodd" d="M-26.013,73.986c0.244,0.204,0.571,0.367,0.73,0.631  c0.594,0.983,1.127,2.004,1.695,3.004c0.222,0.391,0.49,0.756,0.708,1.149c0.353,0.636,0.239,1.084-0.388,1.451  c-1.365,0.799-2.737,1.586-4.113,2.364c-0.564,0.319-1.066,0.229-1.406-0.32c-0.659-1.069-1.264-2.172-1.892-3.261  c-0.171-0.296-0.337-0.596-0.515-0.889c-0.331-0.546-0.257-1.043,0.289-1.4c0.526-0.344,1.1-0.612,1.644-0.93  c0.825-0.481,1.638-0.981,2.463-1.46C-26.583,74.202-26.341,74.127-26.013,73.986z M-26.458,74.968  c-0.278,0.117-0.469,0.175-0.637,0.272c-0.358,0.206-0.698,0.443-1.057,0.648c-0.686,0.391-1.389,0.75-2.064,1.157  c-0.365,0.22-0.505,0.587-0.29,0.981c0.593,1.089,1.203,2.169,1.823,3.243c0.327,0.566,0.667,0.631,1.257,0.301  c1.02-0.57,2.04-1.14,3.063-1.7c0.507-0.277,0.648-0.739,0.343-1.278c-0.585-1.033-1.168-2.068-1.791-3.08  C-25.954,75.278-26.25,75.138-26.458,74.968z"/><path fill-rule="evenodd" clip-rule="evenodd" d="M-39.756,78.795c0-0.777-0.012-1.555,0.003-2.332  c0.014-0.672,0.318-1.019,0.993-1.03c1.626-0.026,3.254-0.023,4.881-0.001c0.611,0.008,1.01,0.475,1.012,1.104  c0.005,1.537,0.006,3.074-0.003,4.61c-0.004,0.725-0.281,1.063-1.004,1.077c-1.663,0.03-3.327,0.024-4.989-0.01  c-0.648-0.014-0.864-0.268-0.884-0.924c-0.025-0.831-0.006-1.663-0.006-2.495C-39.754,78.795-39.755,78.795-39.756,78.795z   M-36.134,81.343c0.596,0,1.191,0.006,1.787-0.001c0.523-0.007,0.822-0.252,0.832-0.776c0.024-1.263,0.025-2.527,0.001-3.79  c-0.011-0.588-0.253-0.784-0.856-0.787c-1.173-0.006-2.347-0.006-3.52,0.002c-0.657,0.004-0.921,0.265-0.926,0.917  c-0.008,1.173-0.007,2.347,0.002,3.52c0.005,0.62,0.308,0.907,0.946,0.916C-37.29,81.35-36.712,81.344-36.134,81.343z"/><path fill-rule="evenodd" clip-rule="evenodd" d="M49.473,65.031c9.059-0.656,13.526-5.938,14.514-12.309  c0.994-6.42-2.735-12.595-9.134-15.14C49,35.386,42.676,37.404,37.199,44.995c2.092-6.715,8.783-11.368,17.285-9.819  c7.772,1.416,13.419,8.78,11.758,18.176C65.004,60.348,57.387,65.914,49.473,65.031z"/><path fill-rule="evenodd" clip-rule="evenodd" d="M55.979,27.373C40.921,25.666,31.972,32.955,28.395,43.1  c-3.604,10.224,0.618,21.5,10.33,27.64c8.925,5.4,19.917,4.034,31.231-6.736c-5.494,10.374-17.896,15.948-31.367,10.795  c-12.313-4.708-19.311-18.519-13.7-33.422C29.068,30.283,43.272,23.493,55.979,27.373z"/><path fill-rule="evenodd" clip-rule="evenodd" d="M53.021,44.19c-5.278-1.225-8.756,0.997-10.443,4.454  c-1.7,3.484-0.664,7.662,2.534,10.241c2.949,2.285,6.909,2.25,11.37-1.11c-2.377,3.459-7.012,4.931-11.583,2.547  c-4.181-2.178-6.101-7.371-3.496-12.434C43.343,44.118,48.667,42.288,53.021,44.19z"/><path fill-rule="evenodd" clip-rule="evenodd" d="M-102.151,78.222c1.656-1.021,2.785-2.476,3.883-4.005  c0.728,0.778,1.447,1.525,2.133,2.303c0.098,0.111,0.107,0.413,0.026,0.549c-0.225,0.379-0.502,0.731-0.79,1.068  c-0.28,0.329-0.589,0.635-0.9,0.935c-0.899,0.866-0.907,0.873-2.033,0.33C-100.603,79.03-101.358,78.626-102.151,78.222z   M-98.655,77.483c0.641,0.416,1.291,0.311,1.606-0.236c0.261-0.454,0.054-0.943-0.567-1.268c-0.169,0.239-0.345,0.482-0.516,0.729  C-98.303,76.955-98.468,77.206-98.655,77.483z"/><path fill-rule="evenodd" clip-rule="evenodd" d="M-33.643,62.612c-0.173,0.357-0.33,0.724-0.522,1.07  c-0.576,1.037-1.16,2.069-1.751,3.098c-0.557,0.97-1.144,1.922-1.686,2.899c-0.75,1.349-1.454,2.723-2.208,4.068  c-0.511,0.911-1.095,1.78-1.61,2.689c-0.771,1.36-1.509,2.739-2.276,4.138c-0.364-0.195-0.66-0.354-1.025-0.551  c3.635-5.866,7.25-11.698,10.864-17.53C-33.787,62.533-33.715,62.573-33.643,62.612z"/><path fill-rule="evenodd" clip-rule="evenodd" d="M-57.242-18.361c-0.19,0.566-0.516,0.762-1.096,0.759  c-5.348-0.024-10.695-0.027-16.043,0.003c-0.606,0.003-0.857-0.281-1.139-0.762C-69.397-18.361-63.337-18.361-57.242-18.361z"/><path fill-rule="evenodd" clip-rule="evenodd" d="M-41.957,84.463c0-0.393,0-0.71,0-1.102c6.823,0.226,13.639,0.45,20.454,0.676  c0,0.063,0,0.125,0,0.188C-28.294,84.304-35.086,84.383-41.957,84.463z"/><path fill-rule="evenodd" clip-rule="evenodd" d="M-91.625,12.338c-0.375-0.162-0.708-0.344-1.063-0.45  c-1.194-0.358-2.352-0.19-3.485,0.285c-0.123,0.051-0.344,0.065-0.422-0.007c-0.642-0.603-0.998-1.064-0.735-2.045  c0.064-0.24,0.177-0.473,0.299-0.691c0.831-1.489,1.438-3.223,1.5-4.384c1.171,0.919,1.243,2.186,1.28,3.487  c0.285-0.039,0.546-0.075,0.854-0.117c-0.553,0.346-1.058,0.663-1.626,1.02c0-0.752,0-1.44,0-2.128  c-0.059-0.018-0.117-0.037-0.175-0.055c-0.307,0.525-0.611,1.052-0.921,1.576c-0.126,0.213-0.25,0.433-0.401,0.627  c-0.356,0.456-0.459,0.957-0.187,1.465c0.394,0.735,0.599,0.765,1.222,0.415c0.867-0.488,1.788-0.762,2.799-0.648  C-91.751,10.791-91.284,11.473-91.625,12.338z"/><path fill-rule="evenodd" clip-rule="evenodd" d="M-101.85,69.545c-1.134-0.911-2.179-1.751-3.202-2.574  c0.302-0.851,0.601-1.692,0.918-2.587c0.131,0.089,0.309,0.193,0.468,0.321c0.8,0.646,1.592,1.3,2.392,1.945  c0.236,0.19,0.334,0.388,0.214,0.699C-101.337,68.071-101.585,68.803-101.85,69.545z"/><path fill-rule="evenodd" clip-rule="evenodd" d="M-135.257,12.388c0.362-0.457,0.743-0.898,1.082-1.372  c1.012-1.416,1.467-2.966,1.062-4.704c-0.257-1.101-0.913-1.947-1.772-2.641c-0.356-0.288-0.675-0.33-1.029,0.13  c-0.84,1.089-2.398,1.465-3.518,1.053c0.6-0.167,1.386-0.315,2.115-0.607c0.857-0.343,0.972-1.177,1.022-2.087  c0.397,0.119,0.752,0.178,1.064,0.327c1.773,0.842,2.776,2.2,2.897,4.212c0.1,1.661-0.366,3.104-1.429,4.356  c-0.43,0.507-0.935,0.951-1.406,1.423C-135.198,12.448-135.228,12.418-135.257,12.388z"/><path fill-rule="evenodd" clip-rule="evenodd" d="M-102.693,81.061c0.074-0.791,0.137-1.471,0.193-2.068  c2.058,0.824,4.118,1.648,6.234,2.496c-0.031,0.367-0.071,0.841-0.117,1.375c-0.577-0.433-1.041-1.044-1.782-0.5  c-1.099-0.971-1.531-0.901-2.261-0.297C-100.893,81.162-101.619,80.756-102.693,81.061z"/><path fill-rule="evenodd" clip-rule="evenodd" d="M-101.273,70.298c0.386-1.021,0.683-1.808,1.025-2.713  c0.818,0.95,1.597,1.845,2.361,2.751c0.093,0.111,0.18,0.312,0.144,0.432c-0.212,0.702-0.461,1.393-0.728,2.172  C-99.482,71.986-100.417,71.104-101.273,70.298z"/><path fill-rule="evenodd" clip-rule="evenodd" d="M-146.082,6.759c0.094-1.72,1.236-2.845,2.893-2.751  c0.257,0.015,0.717,0.254,0.71,0.371c-0.018,0.337-0.139,0.86-0.372,0.962c-0.838,0.367-1.175,1.009-1.339,1.83  c-0.038,0.189-0.141,0.372-0.241,0.541c-0.292,0.494-0.934,0.557-1.25,0.082C-145.88,7.492-145.952,7.106-146.082,6.759z"/><path fill-rule="evenodd" clip-rule="evenodd" d="M-87.437,15.18c-0.073,0.433-0.361,0.427-0.661,0.426  c-1.68-0.004-3.359-0.002-5.039-0.002c-3.976,0-7.951,0.003-11.926-0.012c-0.261-0.001-0.521-0.15-0.782-0.229  c0.017-0.061,0.033-0.122,0.049-0.183C-99.687,15.18-93.579,15.18-87.437,15.18z"/><path fill-rule="evenodd" clip-rule="evenodd" d="M-57.352,13.474c-0.336-0.151-0.663-0.331-1.011-0.446  c-0.325-0.107-0.669-0.178-1.009-0.207c-0.609-0.052-1.234,0.002-1.83-0.111c-0.38-0.073-0.762-0.316-1.065-0.574  c-0.471-0.402-0.455-0.804-0.051-1.269c0.641-0.738,1.476-1.164,2.404-1.367c1.811-0.395,3.64-0.49,5.629-0.155  c-1.21,0.053-2.274,0.066-3.331,0.154c-1.175,0.098-2.255,0.482-3.143,1.298c-0.645,0.593-0.547,1.036,0.291,1.316  c0.272,0.091,0.565,0.203,0.841,0.184c0.747-0.051,1.315,0.259,1.834,0.743c0.14,0.13,0.332,0.205,0.5,0.305  C-57.312,13.388-57.332,13.431-57.352,13.474z"/><path fill-rule="evenodd" clip-rule="evenodd" d="M-95.654,76.429c-0.784-0.933-1.506-1.781-2.21-2.645  c-0.068-0.083-0.079-0.274-0.034-0.381c0.268-0.646,0.56-1.283,0.884-2.014c0.715,1.069,1.399,2.078,2.06,3.102  c0.079,0.122,0.09,0.354,0.03,0.489C-95.142,75.469-95.403,75.938-95.654,76.429z"/><path fill-rule="evenodd" clip-rule="evenodd" d="M-98.098-36.327c2.403,0.586,4.28,2.26,3.952,5.367  c-0.196,1.854-2.061,3.959-3.873,4.091c1.986-1.026,3.236-2.506,3.209-4.767C-94.837-33.91-96.104-35.379-98.098-36.327z"/><path fill-rule="evenodd" clip-rule="evenodd" d="M-71.518,8.512c0.527,0.319,1.092,0.799,1.744,1.021  c0.787,0.269,1.769-0.141,1.893-1.22c0.139-1.21-0.012-2.371-0.39-3.515c-0.051-0.153-0.104-0.306-0.153-0.459  c-0.003-0.012,0.016-0.031,0.075-0.142c0.215,0.493,0.447,0.913,0.586,1.361c0.462,1.493,0.92,3,0.033,4.502  c-0.459,0.776-1.354,1.009-2.085,0.471C-70.572,9.977-71.218,9.295-71.518,8.512z"/><path fill-rule="evenodd" clip-rule="evenodd" d="M-30.377,39.957c1.351,2.218,2.702,4.437,4.055,6.658  c-0.603,0.277-0.971,0.214-1.346-0.243c-0.17-0.208-0.355-0.423-0.458-0.667c-0.8-1.895-1.582-3.798-2.369-5.698  C-30.455,39.989-30.416,39.973-30.377,39.957z"/><path fill-rule="evenodd" clip-rule="evenodd" d="M-55.05,10.47c0.536,0.191,1.146,0.342,1.689,0.622  c0.51,0.262,0.466,0.648-0.028,0.926c-0.813,0.458-2.363,0.304-3.074-0.306c-0.364-0.312-0.359-0.637,0.076-0.839  C-56.006,10.696-55.576,10.623-55.05,10.47z"/><path fill-rule="evenodd" clip-rule="evenodd" d="M-71.41,4.539c0.062-0.298,0.063-0.629,0.205-0.882  c0.114-0.205,0.39-0.424,0.606-0.437c0.209-0.012,0.519,0.179,0.636,0.371c0.458,0.756,0.603,1.58,0.247,2.425  c-0.267,0.632-0.752,0.71-1.12,0.134c-0.298-0.467-0.447-1.03-0.663-1.551C-71.47,4.579-71.44,4.559-71.41,4.539z"/><path fill-rule="evenodd" clip-rule="evenodd" d="M-28.35-25.285c-1.014,2.512-1.407,5.125-1.348,7.851c-0.263,0-0.483,0-0.813,0  C-30.06-20.151-30.01-22.934-28.35-25.285z"/><path fill-rule="evenodd" clip-rule="evenodd" d="M-69.791,1.164c-0.05-0.09-0.11-0.175-0.148-0.27  c-0.173-0.433-0.443-0.764-0.948-0.742c-0.511,0.022-0.898,0.309-1.085,0.769c-0.347,0.854-0.642,1.729-0.915,2.475  c0.018-1.207,0.07-2.549,0.853-3.74c0.297-0.453,0.754-0.532,1.225-0.498c0.461,0.033,0.812,0.253,0.897,0.772  c0.066,0.401,0.171,0.796,0.258,1.193C-69.699,1.138-69.745,1.151-69.791,1.164z"/><path fill-rule="evenodd" clip-rule="evenodd" d="M-71.655,6.319c0.582,0.878,1.31,1.491,2.398,1.179  c0.314-0.09,0.512-0.585,0.729-0.854c0.248,0.399,0.155,1.366-0.292,1.761c-0.339,0.3-0.747,0.399-1.155,0.171  C-70.865,8.08-71.412,7.309-71.655,6.319z"/><path fill-rule="evenodd" clip-rule="evenodd" d="M-99.03,34.753c0,0.53-0.322,0.89-0.796,0.891c-0.511,0.001-1.05-0.643-1.04-1.243  c0.008-0.511,0.31-0.811,0.801-0.797C-99.473,33.62-99.029,34.113-99.03,34.753z"/><path fill-rule="evenodd" clip-rule="evenodd" d="M-45.046,80.48c0.405,0.225,0.728,0.403,1.106,0.613  c-0.378,0.62-0.729,1.195-1.116,1.833c-0.354-0.217-0.693-0.424-1.044-0.638C-45.74,81.67-45.409,81.103-45.046,80.48z"/><path fill-rule="evenodd" clip-rule="evenodd" d="M-44.65,83.321c0.682,0,1.339,0,2.047,0c0.025,0.391,0.047,0.738,0.071,1.123  c-0.734,0-1.407,0-2.118,0C-44.65,84.071-44.65,83.718-44.65,83.321z"/><path fill-rule="evenodd" clip-rule="evenodd" d="M-25.752-23.922c0.169,2.151,0.339,4.301,0.512,6.491c-0.211,0-0.399,0-0.582,0  c0-2.165,0-4.328,0-6.492C-25.798-23.923-25.775-23.923-25.752-23.922z"/><path fill-rule="evenodd" clip-rule="evenodd" d="M-29.152-30.194c0,0.301,0,0.602,0,0.946c0.48,0.021,0.934,0.042,1.395,0.063  c-0.623,0.576-1.198,1.108-1.826,1.69c0.034-0.476,0.067-0.937,0.103-1.422c-0.275,0-0.521,0-0.845,0  c0.379-0.475,0.716-0.898,1.053-1.321C-29.232-30.223-29.192-30.208-29.152-30.194z"/><path fill-rule="evenodd" clip-rule="evenodd" d="M-52.299,13.479c1.765-0.946,2.223-1.967,0.488-2.884  c0.022-0.045,0.045-0.09,0.067-0.134c0.501,0.268,1.042,0.481,1.492,0.817c0.547,0.409,0.519,1.009,0.005,1.472  C-50.822,13.267-51.527,13.433-52.299,13.479z"/><path fill-rule="evenodd" clip-rule="evenodd" d="M-133.334,41.178c0.003-0.531,0.344-0.978,0.739-0.966  c0.368,0.01,0.695,0.499,0.682,1.02c-0.01,0.421-0.341,0.828-0.683,0.84C-132.979,42.086-133.336,41.653-133.334,41.178z"/><path fill-rule="evenodd" clip-rule="evenodd" d="M-56.906,10.09c-0.643,0.366-1.581,0.443-1.551,1.586  c-0.326-0.04-0.709-0.076-1.09-0.135c-0.305-0.047-0.35-0.255-0.18-0.463c0.154-0.188,0.35-0.394,0.569-0.469  c0.721-0.25,1.461-0.443,2.195-0.659C-56.944,9.998-56.925,10.044-56.906,10.09z"/><path fill-rule="evenodd" clip-rule="evenodd" d="M-130.468,35.126c-0.001-0.575,0.219-0.924,0.592-0.936  c0.377-0.013,0.67,0.396,0.675,0.941c0.004,0.465-0.283,0.836-0.649,0.841C-130.222,35.978-130.467,35.643-130.468,35.126z"/><path fill-rule="evenodd" clip-rule="evenodd" d="M-129.026,44.519c-0.009,0.641-0.276,1.17-0.556,1.092  c-0.507-0.141-0.48-0.609-0.522-1.019c-0.002-0.018-0.001-0.037,0-0.054c0.039-0.406-0.014-0.961,0.546-0.95  C-129,43.599-129.096,44.174-129.026,44.519z"/><path fill-rule="evenodd" clip-rule="evenodd" d="M-103.882,36.377c-0.093-0.132-0.337-0.333-0.378-0.569  c-0.073-0.427,0.383-0.826,0.862-0.834c0.366-0.006,0.64,0.131,0.661,0.538C-102.717,35.895-103.251,36.359-103.882,36.377z"/><path fill-rule="evenodd" clip-rule="evenodd" d="M-129.57,40.848c-0.528-0.545-0.523-1.636,0.01-2.168  C-129.011,39.136-129.018,40.412-129.57,40.848z"/><path fill-rule="evenodd" clip-rule="evenodd" d="M-87.91,6.506c-0.045,0.671-0.479,1.211-0.86,1.132  c-0.142-0.029-0.335-0.271-0.339-0.42c-0.011-0.423,0.578-1.11,0.874-1.038C-88.082,6.217-87.972,6.439-87.91,6.506z"/><path fill-rule="evenodd" clip-rule="evenodd" d="M76.276,37.809c3.067-0.104,4.354-2.093,3.598-5.467  c-0.326-1.455-0.823-2.872-1.147-4.321c1.824,2.84,2.567,5.876,1.343,9.154C79.497,38.704,77.632,39.009,76.276,37.809z"/><path fill-rule="evenodd" clip-rule="evenodd" d="M-132.723,36.163c-0.292,0.316-0.487,0.713-0.717,0.734  c-0.404,0.038-0.501-0.386-0.523-0.741c-0.024-0.381,0.184-0.696,0.54-0.661C-133.208,35.517-133.024,35.86-132.723,36.163z"/><path fill-rule="evenodd" clip-rule="evenodd" d="M-125.8,10.458c-0.284-0.202-0.792-0.432-0.769-0.571  c0.081-0.478,0.557-0.343,0.875-0.273c0.253,0.056,0.47,0.275,0.703,0.422C-125.229,10.161-125.467,10.285-125.8,10.458z"/><path fill-rule="evenodd" clip-rule="evenodd" d="M-128.835,11.934c0.387-0.313,1.159-0.318,1.472,0.018  c0.055,0.058,0.022,0.309-0.046,0.354C-127.796,12.558-128.508,12.358-128.835,11.934z"/><path fill-rule="evenodd" clip-rule="evenodd" d="M-129.885,10.53c0.428-0.301,1.112-0.339,1.401-0.096  c0.071,0.06,0.139,0.186,0.125,0.267c-0.014,0.077-0.131,0.184-0.212,0.192C-129.035,10.941-129.5,10.961-129.885,10.53z"/><path fill-rule="evenodd" clip-rule="evenodd" d="M-101.863,38.802c-0.197-0.289-0.424-0.481-0.392-0.606  c0.047-0.18,0.298-0.447,0.433-0.431c0.183,0.022,0.442,0.26,0.47,0.437C-101.331,38.338-101.613,38.524-101.863,38.802z"/><path fill-rule="evenodd" clip-rule="evenodd" d="M-87.327,3.401c0.302-0.335,0.541-0.623,0.812-0.875  c0.036-0.033,0.341,0.105,0.349,0.182C-86.119,3.149-86.684,3.548-87.327,3.401z"/><path fill-rule="evenodd" clip-rule="evenodd" d="M-88.331,3.233c0.029,0.472-0.283,0.958-0.633,1.033  c-0.31,0.066-0.351-0.127-0.281-0.347C-89.111,3.503-88.803,3.29-88.331,3.233z"/><path fill-rule="evenodd" clip-rule="evenodd" d="M-126.754,13.206c0.508-0.251,1.065-0.139,1.452,0.294  C-125.841,13.731-126.429,13.612-126.754,13.206z"/><path fill-rule="evenodd" clip-rule="evenodd" d="M-128.41,8.803c0.489-0.324,0.873-0.319,1.357,0.002  C-127.544,9.125-127.928,9.115-128.41,8.803z"/><path fill-rule="evenodd" clip-rule="evenodd" d="M-125.739,8.056c0.47-0.377,0.723-0.38,1.198-0.028  C-124.925,8.357-125.293,8.306-125.739,8.056z"/><path fill-rule="evenodd" clip-rule="evenodd" d="M-128.565,42.826c-0.21-0.403-0.313-0.805,0.157-1.2c0,0.401,0,0.803,0,1.204  C-128.46,42.829-128.513,42.827-128.565,42.826z"/><path fill-rule="evenodd" clip-rule="evenodd" d="M-129.978,13.199c0.406,0.056,0.812,0.111,1.218,0.167  c-0.011,0.091-0.022,0.181-0.034,0.271c-0.404-0.052-0.808-0.104-1.212-0.155C-129.997,13.388-129.987,13.294-129.978,13.199z"/><path fill-rule="evenodd" clip-rule="evenodd" fill="#000000" d="M-31.171-1.675c0-1.075,0-2.063,0-3.071c0.728,0,1.406,0,2.143,0  c0,1.018,0,2.003,0,2.988c0.551,0.075,1.061,0.082,1.532,0.221c1.247,0.367,1.936,0.962,1.906,2.435  c-0.033,1.642-0.008,3.284-0.008,5.02c-0.776,0-1.552-0.057-2.316,0.016c-0.767,0.073-1.524,0.263-2.28,0.427  c-0.408,0.088-0.57,0.362-0.556,0.797c0.028,0.865,0.008,1.731,0.008,2.704c-0.717-0.086-1.382-0.167-2.068-0.25  c0-2.365,0-4.673,0-7.001c2.115,0,4.212,0,6.34,0c0-0.438,0-0.754,0-1.021c-1.861,0-3.709,0-5.551,0  c-0.067-0.802,0.247-1.417,0.974-1.661c0.743-0.249,1.53-0.364,2.145-0.503c-0.544,0-1.272-0.082-1.974,0.019  c-1.123,0.161-1.873,0.802-1.999,2.023c-0.296,0-0.563,0-0.874,0c-0.013,0.18-0.034,0.336-0.034,0.492  c-0.002,2.658,0.009,5.316-0.014,7.974c-0.004,0.466,0.139,0.639,0.598,0.669c0.79,0.052,1.577,0.156,2.451,0.247  c0,0.478,0.014,0.958-0.012,1.436c-0.006,0.1-0.143,0.233-0.25,0.28c-0.593,0.263-1.194,0.509-1.797,0.751  c-1.026,0.413-1.67,0.048-1.701-1.053c-0.059-2.114-0.064-4.229-0.069-6.345c-0.004-1.663,0.049-3.327,0.035-4.99  c-0.014-1.706,1.158-2.502,2.638-2.603C-31.689-1.688-31.475-1.675-31.171-1.675z"/><path fill-rule="evenodd" clip-rule="evenodd" fill="#000000" d="M-23.537,7.494c0,1.197,0,2.396,0,3.599  c-1.29-0.559-2.617-0.473-3.971-0.447c0,0.389,0,0.722,0,1.044c0.784,0.233,2.496,0.125,3.98-0.248c0,1.63,0.012,3.248-0.007,4.865  c-0.005,0.484-0.418,0.606-0.799,0.646c-0.239,0.025-0.509-0.034-0.735-0.129c-0.956-0.402-1.907-0.522-2.939,0.021  c0-3.109,0-6.14,0-9.152C-26.505,7.626-25.038,7.561-23.537,7.494z"/><path fill-rule="evenodd" clip-rule="evenodd" fill="#000000" d="M-28.076-8.207c0,0.708,0,1.46,0,2.262  c-1.181,0.221-2.354,0.364-3.535,0.094c-0.149-0.034-0.35-0.268-0.359-0.42c-0.04-0.645-0.017-1.294-0.017-1.936  C-30.679-8.207-29.411-8.207-28.076-8.207z"/><path fill-rule="evenodd" clip-rule="evenodd" fill="#000000" d="M-29.673,7.476c0.793,0.007,0.794,0.007,0.794,0.731  c0,2.687,0,5.373,0,8.06c0,0.19,0,0.38,0,0.616c-0.535-0.164-0.827-0.406-0.826-0.931c0.006-2.742,0.002-5.484,0.004-8.227  C-29.702,7.655-29.686,7.585-29.673,7.476z"/><path fill-rule="evenodd" clip-rule="evenodd" fill="#000000" d="M-134.048,65.601c1.458-0.609,2.46-0.507,3.122,0.273  c0.513,0.605,0.435,1.731-0.192,2.778c0.503,0.231,1.008,0.464,1.514,0.696c-0.005,0.075-0.011,0.149-0.016,0.224  c-0.368,0.09-0.733,0.243-1.103,0.257c-1.678,0.062-3.357,0.076-5.035,0.13c-0.178,0.005-0.423,0.107-0.514,0.245  c-0.688,1.051-1.366,1.305-2.559,0.9c-0.238-0.08-0.469-0.184-0.726-0.285c-0.349,0.843-0.835,1.571-1.669,1.977  c-0.872,0.424-1.794,0.45-2.681,0.086c-0.803-0.331-1.285-0.973-1.35-1.864c-0.096-1.31,0.648-2.499,1.786-3.033  c-0.097-0.683-0.259-1.326-0.245-1.967c0.005-0.272,0.339-0.585,0.593-0.796c0.854-0.708,1.723-0.647,2.824,0.155  c0.641-1.384,1.789-2.122,3.25-2.122C-135.554,63.256-134.563,64.174-134.048,65.601z M-136.583,68.429  c0.011-0.689-0.631-1.3-1.375-1.305c-0.624-0.005-1.302,0.659-1.301,1.273c0.001,0.704,0.599,1.379,1.242,1.402  C-137.238,69.828-136.595,69.214-136.583,68.429z M-141.297,68.227c0.571-0.012,0.908-0.359,0.887-0.918  c-0.023-0.614-0.364-0.967-0.925-0.956c-0.553,0.01-0.99,0.453-0.984,0.999C-142.313,67.863-141.875,68.238-141.297,68.227z   M-142,70.563c0.018-0.461-0.183-0.704-0.596-0.721c-0.388-0.017-0.671,0.142-0.705,0.575c-0.03,0.385,0.262,0.737,0.628,0.741  C-142.254,71.162-142.075,70.888-142,70.563z"/><path fill-rule="evenodd" clip-rule="evenodd" fill="#000000" d="M-63.447,82.636c0.09-0.361,0.181-0.723,0.279-1.116  c1.063-0.035,2.086,0.12,3.071,0.488c0.115,0.043,0.268,0.263,0.24,0.346c-0.055,0.163-0.2,0.374-0.35,0.415  c-0.708,0.194-1.423,0.41-2.149,0.484c-1.37,0.139-2.734,0.031-4.058-0.389c-0.167-0.053-0.339-0.133-0.469-0.246  c-0.271-0.237-0.274-0.503,0.108-0.591c0.853-0.194,1.715-0.354,2.579-0.489c0.118-0.019,0.328,0.157,0.394,0.292  c0.124,0.252,0.172,0.54,0.251,0.813C-63.516,82.641-63.482,82.639-63.447,82.636z"/><path fill-rule="evenodd" clip-rule="evenodd" fill="#000000" d="M-92.135,38.611c0.967-0.255,1.827-0.412,2.578,0.425  c0.417,0.464,0.951,0.821,1.422,1.219c-0.17-0.56-0.371-1.219-0.586-1.928c1.173,0.028,2.362,0.12,3.378,0.887  c0.583,0.44,0.712,0.894,0.312,1.51c-0.336,0.515-0.762,1.027-1.265,1.365c-0.951,0.638-1.958,1.21-2.993,1.699  c-1.237,0.585-2.493,1.182-3.804,1.548c-2.759,0.772-5.55,1.442-8.347,2.065c-1.313,0.292-2.678,0.522-4.014,0.065  c-0.392-0.134-0.784-0.372-1.076-0.663c-0.347-0.345-0.389-0.792-0.198-1.3c0.621-1.651,2.02-2.531,3.358-3.471  c0.129-0.091,0.388-0.069,0.561-0.016c1.018,0.32,2.01,0.691,2.827,1.424c0.316,0.283,0.687,0.506,1.142,0.836  c-0.4-1.458-1.146-2.494-2.434-3.288c0.955-0.334,1.906-0.677,2.867-0.994c0.11-0.036,0.271,0.063,0.402,0.117  c1.282,0.52,2.249,1.468,3.347,2.478c-0.239-1.282-0.939-2.16-1.761-3.089c0.849-0.199,1.642-0.405,2.445-0.559  c0.161-0.031,0.386,0.103,0.537,0.219c0.901,0.696,1.79,1.409,2.651,2.091C-90.83,40.264-91.457,39.444-92.135,38.611z"/><path fill-rule="evenodd" clip-rule="evenodd" fill="#000000" d="M-95.943,79.867c0.311-0.399,0.581-0.745,0.856-1.099  c0.338,0.236,0.592,0.522,0.351,0.903C-95.013,80.112-95.453,80.05-95.943,79.867z"/><path fill-rule="evenodd" clip-rule="evenodd" fill="#000000" d="M-110.615,69.686c-1.608-2.41-2.307-4.948-1.999-7.845  c0.602,0.152,1.143,0.227,1.633,0.425c1.335,0.54,2.653,1.125,3.964,1.721c0.105,0.048,0.192,0.356,0.141,0.486  c-0.247,0.636-0.534,1.256-0.825,1.873C-108.348,67.719-109.491,68.656-110.615,69.686z M-109.316,65.913  c0.722,0.005,1.017-0.265,1.034-0.944c0.018-0.708-0.336-1.066-1.049-1.062c-0.657,0.004-0.972,0.336-0.97,1.022  C-110.299,65.633-110.023,65.908-109.316,65.913z"/><path fill-rule="evenodd" clip-rule="evenodd" fill="#000000" d="M-106.317,71.864c0.584-0.74,1.147-1.453,1.708-2.163  c0.818,0.473,1.115,1.271,0.727,1.894C-104.34,72.329-105.436,72.47-106.317,71.864z"/><path fill-rule="evenodd" clip-rule="evenodd" fill="#000000" d="M-100.914,72.657c0.734,0.527,0.957,1.217,0.562,1.718  c-0.506,0.642-1.386,0.716-2.031,0.125C-101.904,73.899-101.421,73.294-100.914,72.657z"/><path fill-rule="evenodd" clip-rule="evenodd" fill="#000000" d="M-33.302,67.408c0.547,0.227,1.026,0.39,1.471,0.619  c0.657,0.337,1.292,0.718,1.933,1.084c0.817,0.468,0.906,0.778,0.47,1.611c-0.483,0.924-0.962,1.85-1.45,2.771  c-0.3,0.568-0.691,0.746-1.243,0.471c-1.142-0.571-2.264-1.181-3.378-1.801c-0.137-0.077-0.24-0.316-0.253-0.489  c-0.017-0.224,0.018-0.485,0.124-0.68c0.58-1.059,1.178-2.108,1.798-3.145C-33.716,67.659-33.472,67.546-33.302,67.408z   M-30.537,71.819c0.326-0.617,0.607-1.151,0.902-1.71c-0.598-0.276-1.128-0.521-1.705-0.788c-0.263,0.533-0.512,1.038-0.777,1.573  C-31.574,71.212-31.081,71.501-30.537,71.819z M-33.97,69.162c-0.436,0.761-0.859,1.498-1.296,2.261  c0.231,0.127,0.4,0.223,0.572,0.314c0.589,0.314,0.616,0.293,0.889-0.331c0.244-0.558,0.523-1.1,0.796-1.668  C-33.294,69.567-33.613,69.376-33.97,69.162z M-32.518,72.839c0.212-0.366,0.407-0.704,0.624-1.08  c-0.399-0.211-0.783-0.415-1.162-0.616c-0.678,1.108-0.678,1.108,0.392,1.644C-32.634,72.802-32.599,72.81-32.518,72.839z"/><path fill-rule="evenodd" clip-rule="evenodd" fill="#000000" d="M-26.458,74.968c0.209,0.17,0.505,0.311,0.648,0.545  c0.622,1.012,1.206,2.047,1.791,3.08c0.305,0.539,0.164,1.001-0.343,1.278c-1.024,0.561-2.044,1.13-3.063,1.7  c-0.59,0.33-0.93,0.266-1.257-0.301c-0.62-1.074-1.229-2.154-1.823-3.243c-0.215-0.395-0.075-0.762,0.29-0.981  c0.675-0.407,1.379-0.767,2.064-1.157c0.359-0.205,0.699-0.442,1.057-0.648C-26.927,75.143-26.736,75.085-26.458,74.968z   M-26.265,75.717c-0.493,0.243-0.923,0.426-1.317,0.668c-0.108,0.066-0.188,0.337-0.144,0.467c0.121,0.354,0.292,0.697,0.493,1.014  c0.071,0.111,0.325,0.221,0.429,0.177c0.467-0.198,0.911-0.452,1.401-0.706C-25.723,76.735-25.982,76.249-26.265,75.717z   M-27.184,80.462c-0.396-0.755-0.79-1.501-1.2-2.282c-0.411,0.24-0.76,0.443-1.14,0.665c0.47,0.763,0.91,1.477,1.377,2.234  C-27.816,80.868-27.521,80.678-27.184,80.462z M-27.383,79.121c0.295,0.355,0.504,0.797,0.842,0.944  c0.205,0.09,0.866-0.267,0.871-0.436c0.012-0.399-0.247-0.806-0.411-1.25C-26.55,78.647-26.919,78.857-27.383,79.121z"/><path fill-rule="evenodd" clip-rule="evenodd" fill="#000000" d="M-36.134,81.344c-0.578,0-1.156,0.006-1.733-0.001  c-0.638-0.009-0.941-0.296-0.946-0.916c-0.009-1.173-0.01-2.347-0.002-3.52c0.004-0.652,0.269-0.913,0.926-0.917  c1.173-0.008,2.347-0.008,3.52-0.002c0.604,0.003,0.845,0.199,0.856,0.787c0.023,1.263,0.022,2.527-0.001,3.79  c-0.01,0.524-0.309,0.77-0.832,0.776C-34.943,81.349-35.539,81.343-36.134,81.344z M-34.287,79.004c-0.597,0-1.16,0-1.747,0  c0,0.604,0,1.169,0,1.751c0.6,0,1.166,0,1.747,0C-34.287,80.155-34.287,79.59-34.287,79.004z M-35.485,76.54  c-0.855,0-1.654,0-2.433,0c0,0.432,0,0.818,0,1.194c0.835,0,1.622,0,2.433,0C-35.485,77.325-35.485,76.951-35.485,76.54z   M-37.929,78.291c0,0.464,0,0.868,0,1.289c0.403,0,0.771,0,1.152,0c0-0.448,0-0.865,0-1.289  C-37.178,78.291-37.533,78.291-37.929,78.291z"/><path fill-rule="evenodd" clip-rule="evenodd" fill="#000000" d="M-98.655,77.483c0.187-0.277,0.352-0.528,0.523-0.775  c0.17-0.246,0.346-0.489,0.516-0.729c0.621,0.324,0.829,0.813,0.567,1.268C-97.364,77.794-98.014,77.899-98.655,77.483z"/><path fill-rule="evenodd" clip-rule="evenodd" d="M-136.583,68.429c-0.013,0.785-0.655,1.399-1.434,1.371  c-0.643-0.023-1.241-0.698-1.242-1.402c-0.001-0.614,0.677-1.278,1.301-1.273C-137.214,67.129-136.571,67.739-136.583,68.429z"/><path fill-rule="evenodd" clip-rule="evenodd" d="M-141.297,68.227c-0.579,0.012-1.016-0.363-1.022-0.875  c-0.006-0.546,0.431-0.989,0.984-0.999c0.561-0.011,0.901,0.342,0.925,0.956C-140.389,67.867-140.726,68.215-141.297,68.227z"/><path fill-rule="evenodd" clip-rule="evenodd" d="M-142,70.563c-0.075,0.324-0.253,0.599-0.672,0.596  c-0.367-0.004-0.658-0.356-0.628-0.741c0.033-0.434,0.317-0.592,0.705-0.575C-142.184,69.859-141.983,70.103-142,70.563z"/><path fill-rule="evenodd" clip-rule="evenodd" d="M-109.316,65.913c-0.707-0.005-0.983-0.28-0.985-0.983  c-0.002-0.687,0.313-1.019,0.97-1.022c0.713-0.005,1.067,0.354,1.049,1.062C-108.299,65.648-108.594,65.918-109.316,65.913z"/><path fill-rule="evenodd" clip-rule="evenodd" d="M-30.537,71.819c-0.544-0.318-1.037-0.607-1.579-0.925  c0.265-0.535,0.514-1.04,0.777-1.573c0.577,0.267,1.106,0.512,1.705,0.788C-29.93,70.668-30.211,71.202-30.537,71.819z"/><path fill-rule="evenodd" clip-rule="evenodd" d="M-33.97,69.162c0.357,0.214,0.676,0.405,0.961,0.576  c-0.273,0.568-0.552,1.11-0.796,1.668c-0.273,0.624-0.3,0.646-0.889,0.331c-0.172-0.092-0.341-0.188-0.572-0.314  C-34.829,70.66-34.406,69.923-33.97,69.162z"/><path fill-rule="evenodd" clip-rule="evenodd" d="M-32.518,72.839c-0.081-0.029-0.116-0.037-0.146-0.053  c-1.07-0.535-1.07-0.535-0.392-1.644c0.379,0.201,0.763,0.405,1.162,0.616C-32.111,72.135-32.306,72.473-32.518,72.839z"/><path fill-rule="evenodd" clip-rule="evenodd" d="M-26.265,75.717c0.283,0.532,0.542,1.019,0.863,1.619  c-0.49,0.254-0.934,0.508-1.401,0.706c-0.104,0.044-0.358-0.065-0.429-0.177c-0.201-0.316-0.372-0.66-0.493-1.014  c-0.044-0.13,0.036-0.4,0.144-0.467C-27.188,76.143-26.758,75.96-26.265,75.717z"/><path fill-rule="evenodd" clip-rule="evenodd" d="M-27.184,80.462c-0.336,0.216-0.632,0.406-0.962,0.617  c-0.467-0.758-0.907-1.472-1.377-2.234c0.38-0.222,0.729-0.425,1.14-0.665C-27.974,78.961-27.581,79.707-27.184,80.462z"/><path fill-rule="evenodd" clip-rule="evenodd" d="M-27.383,79.121c0.463-0.264,0.833-0.474,1.302-0.741  c0.164,0.444,0.422,0.851,0.411,1.25c-0.005,0.169-0.666,0.525-0.871,0.436C-26.879,79.918-27.088,79.477-27.383,79.121z"/><path fill-rule="evenodd" clip-rule="evenodd" d="M-34.287,79.004c0,0.586,0,1.151,0,1.751c-0.582,0-1.147,0-1.747,0  c0-0.582,0-1.146,0-1.751C-35.446,79.004-34.883,79.004-34.287,79.004z"/><path fill-rule="evenodd" clip-rule="evenodd" d="M-35.485,76.54c0,0.411,0,0.785,0,1.194c-0.811,0-1.598,0-2.433,0  c0-0.376,0-0.763,0-1.194C-37.139,76.54-36.34,76.54-35.485,76.54z"/><path fill-rule="evenodd" clip-rule="evenodd" d="M-37.929,78.291c0.396,0,0.751,0,1.152,0c0,0.424,0,0.841,0,1.289  c-0.381,0-0.75,0-1.152,0C-37.929,79.159-37.929,78.755-37.929,78.291z"/><text x="0" y="115" fill="#000000" font-size="5px" font-weight="bold" font-family="'Helvetica Neue', Helvetica, Arial-Unicode, Arial, Sans-serif">Created by Marianna Nardella</text><text x="0" y="120" fill="#000000" font-size="5px" font-weight="bold" font-family="'Helvetica Neue', Helvetica, Arial-Unicode, Arial, Sans-serif">from the Noun Project</text></svg>