<?xml version="1.0" encoding="utf-8"?>
<!-- Generated by IcoMoon.io -->
<!DOCTYPE svg PUBLIC "-//W3C//DTD SVG 1.1//EN" "http://www.w3.org/Graphics/SVG/1.1/DTD/svg11.dtd">
<svg version="1.1" xmlns="http://www.w3.org/2000/svg" xmlns:xlink="http://www.w3.org/1999/xlink" width="1286" height="1024" viewBox="0 0 1286 1024">
<g id="icomoon-ignore">
</g>
<path d="M1204.44 24.644c-62.078 58.072-82.771 326.729-62.078 377.539 25.742 63.23 51.742 14.531 51.742 137.957v392.087c0 12.020 13.902 21.777 31.037 21.777 17.153 0 31.053-9.76 31.053-21.777v-907.583c-0.016-21.791-25.415-24.645-51.759 0v0z"></path>
<path d="M164.304 31.903c-5.71 0-10.343 14.339-10.343 32.030v175.775c0 3.872-4.64 7.009-10.343 7.009-5.723 0-10.343-3.142-10.343-7.009v-175.775c0-17.699-4.64-32.030-10.343-32.030-5.723 0-10.36 14.339-10.36 32.030v175.775c0 3.872-4.625 7.009-10.343 7.009s-10.343-3.142-10.343-7.009v-175.775c0-17.699-4.64-32.030-10.343-32.030-5.723 0-10.36 14.339-10.36 32.030v175.775c0 3.872-4.625 7.009-10.343 7.009-5.71 0-10.343-3.142-10.343-7.009v-175.775c0-17.699-4.64-32.030-10.343-32.030s-10.343 14.339-10.343 32.030v227.107c0 64.793 41.384 64.793 41.384 102.323v538.88c0 12.020 13.916 21.777 31.053 21.777s31.053-9.76 31.053-21.777v-538.896c0-37.532 41.384-37.532 41.384-102.323v-227.097c0-17.688-4.64-32.030-10.343-32.030v0z"></path>
<path d="M642.99 69.403c-227.341 0-411.652 184.311-411.652 411.652s184.311 411.652 411.652 411.652c227.341 0 411.652-184.311 411.652-411.652s-184.311-411.652-411.652-411.652v0zM642.99 810.377c-181.883 0-329.322-147.44-329.322-329.322s147.44-329.322 329.322-329.322c181.883 0 329.322 147.44 329.322 329.322s-147.44 329.322-329.322 329.322v0z"></path>
<path d="M493.186 219.966h-8.624v205.61h37.079v-205.61h-28.452z"></path>
<path d="M493.186 537.202h-8.624v205.61h37.079v-205.61h-28.452z"></path>
<path d="M503.099 564.369c32.522 0 58.196-25.674 58.196-58.196v-49.567c0-32.522-25.674-58.196-58.196-58.196s-58.196 25.674-58.196 58.196v49.567c0 32.522 25.674 58.196 58.196 58.196v0zM503.099 435.49c12.091 0 21.116 9.026 21.116 21.116v49.567c0 12.091-9.026 21.116-21.116 21.116s-21.116-9.026-21.116-21.116v-49.567c0-12.091 9.026-21.116 21.116-21.116v0z"></path>
<path d="M770.77 219.966h-8.624v146.128h37.079v-146.128h-28.452z"></path>
<path d="M770.77 477.724h-8.624v265.093h37.079v-265.093h-28.452z"></path>
<path d="M780.686 504.884c32.522 0 58.196-25.674 58.196-58.196v-49.567c0-32.522-25.674-58.196-58.196-58.196s-58.196 25.674-58.196 58.196v49.567c0 32.522 25.674 58.196 58.196 58.196v0zM780.686 376.006c12.091 0 21.116 9.026 21.116 21.116v49.567c0 12.091-9.026 21.116-21.116 21.116s-21.116-9.026-21.116-21.116v-49.567c0-12.091 9.026-21.116 21.116-21.116v0z"></path>
<path d="M631.98 219.966h-8.624v275.007h37.079v-275.007h-28.452z"></path>
<path d="M631.98 606.6h-8.624v136.215h37.079v-136.215h-28.452z"></path>
<path d="M641.891 633.763c32.522 0 58.196-25.674 58.196-58.196v-49.567c0-32.522-25.674-58.196-58.196-58.196s-58.196 25.674-58.196 58.196v49.567c0 32.522 25.674 58.196 58.196 58.196v0zM641.891 504.884c12.091 0 21.116 9.026 21.116 21.116v49.567c0 12.091-9.026 21.116-21.116 21.116s-21.116-9.026-21.116-21.116v-49.567c0-12.091 9.026-21.116 21.116-21.116v0z"></path>
<path d="M346.215 882.308l68.947-84.669-19.045-15.509-68.947 84.669 19.045 15.509z"></path>
<path d="M254.498 1024l120.948-152.904-41.735-33.013-120.948 152.904 41.735 33.013z"></path>
</svg>
